<?xml version="1.0" encoding="utf-8"?>
<!-- Generator: Adobe Illustrator 16.0.0, SVG Export Plug-In . SVG Version: 6.00 Build 0)  -->
<!DOCTYPE svg PUBLIC "-//W3C//DTD SVG 1.1//EN" "http://www.w3.org/Graphics/SVG/1.1/DTD/svg11.dtd">
<svg version="1.1" id="Layer_1" xmlns="http://www.w3.org/2000/svg" xmlns:xlink="http://www.w3.org/1999/xlink" x="0px" y="0px"
	 width="360px" height="640px" viewBox="0 0 360 640" enable-background="new 0 0 360 640" xml:space="preserve">
<g id="GameOver">
	<rect x="80" y="368" fill="#2B3990" width="200" height="50"/>
	<rect x="80" y="438" fill="#2B3990" width="200" height="50"/>
	<g enable-background="new    ">
		<path fill="#FFFFFF" d="M109.793,380.434v9.023h10.431v-9.023h2.816V402h-2.816v-10.111h-10.431V402h-2.784v-21.566H109.793z"/>
		<path fill="#FFFFFF" d="M131.232,382.161c0.032,0.96-0.672,1.729-1.792,1.729c-0.992,0-1.696-0.769-1.696-1.729
			c0-0.991,0.736-1.76,1.76-1.76C130.56,380.402,131.232,381.17,131.232,382.161z M128.096,402v-15.487h2.816V402H128.096z"/>
		<path fill="#FFFFFF" d="M148.927,386.513c-0.064,1.12-0.128,2.368-0.128,4.256v8.991c0,3.552-0.704,5.728-2.208,7.072
			c-1.504,1.407-3.68,1.855-5.632,1.855c-1.856,0-3.904-0.448-5.151-1.28l0.704-2.144c1.024,0.64,2.624,1.216,4.544,1.216
			c2.879,0,4.992-1.504,4.992-5.407v-1.729h-0.064c-0.864,1.44-2.528,2.592-4.927,2.592c-3.84,0-6.592-3.264-6.592-7.551
			c0-5.248,3.424-8.224,6.976-8.224c2.688,0,4.16,1.408,4.832,2.688h0.064l0.128-2.336H148.927z M146.015,392.625
			c0-0.48-0.032-0.896-0.16-1.28c-0.512-1.632-1.888-2.976-3.936-2.976c-2.688,0-4.608,2.271-4.608,5.855
			c0,3.04,1.536,5.567,4.576,5.567c1.728,0,3.296-1.088,3.904-2.88c0.16-0.479,0.224-1.023,0.224-1.504V392.625z"/>
		<path fill="#FFFFFF" d="M153.472,379.281h2.816v9.664h0.064c0.448-0.801,1.152-1.504,2.016-1.984c0.832-0.479,1.824-0.8,2.88-0.8
			c2.08,0,5.408,1.28,5.408,6.624V402h-2.816v-8.896c0-2.496-0.928-4.607-3.584-4.607c-1.824,0-3.264,1.28-3.775,2.815
			c-0.16,0.384-0.192,0.8-0.192,1.344V402h-2.816V379.281z"/>
		<path fill="#FFFFFF" d="M170.944,398.609c1.248,0.768,3.072,1.408,4.992,1.408c2.848,0,4.512-1.504,4.512-3.681
			c0-2.016-1.152-3.167-4.064-4.287c-3.52-1.248-5.695-3.072-5.695-6.111c0-3.36,2.784-5.855,6.976-5.855
			c2.208,0,3.808,0.512,4.768,1.056l-0.769,2.271c-0.703-0.384-2.144-1.023-4.095-1.023c-2.944,0-4.063,1.76-4.063,3.231
			c0,2.016,1.312,3.008,4.288,4.16c3.647,1.407,5.504,3.167,5.504,6.335c0,3.328-2.465,6.208-7.552,6.208
			c-2.08,0-4.352-0.608-5.504-1.376L170.944,398.609z"/>
		<path fill="#FFFFFF" d="M198.239,401.424c-0.736,0.384-2.367,0.896-4.447,0.896c-4.672,0-7.712-3.168-7.712-7.903
			c0-4.769,3.264-8.224,8.319-8.224c1.664,0,3.136,0.416,3.904,0.8l-0.641,2.176c-0.672-0.384-1.728-0.736-3.264-0.736
			c-3.552,0-5.472,2.624-5.472,5.855c0,3.584,2.304,5.792,5.376,5.792c1.6,0,2.656-0.416,3.455-0.768L198.239,401.424z"/>
		<path fill="#FFFFFF" d="M215.358,394.129c0,5.728-3.967,8.223-7.711,8.223c-4.191,0-7.424-3.071-7.424-7.967
			c0-5.184,3.393-8.224,7.68-8.224C212.351,386.161,215.358,389.393,215.358,394.129z M203.071,394.288
			c0,3.393,1.953,5.952,4.705,5.952c2.688,0,4.703-2.528,4.703-6.016c0-2.624-1.313-5.951-4.64-5.951
			C204.511,388.274,203.071,391.345,203.071,394.288z"/>
		<path fill="#FFFFFF" d="M218.911,391.345c0-1.824-0.032-3.392-0.128-4.832h2.464l0.096,3.04h0.128
			c0.704-2.08,2.4-3.392,4.287-3.392c0.32,0,0.545,0.032,0.801,0.096v2.656c-0.288-0.064-0.576-0.096-0.96-0.096
			c-1.983,0-3.392,1.504-3.776,3.615c-0.063,0.384-0.127,0.832-0.127,1.312V402h-2.784V391.345z"/>
		<path fill="#FFFFFF" d="M230.623,394.769c0.064,3.808,2.496,5.376,5.312,5.376c2.016,0,3.231-0.353,4.288-0.801l0.479,2.017
			c-0.991,0.447-2.688,0.96-5.151,0.96c-4.768,0-7.615-3.136-7.615-7.808s2.752-8.352,7.264-8.352c5.055,0,6.398,4.447,6.398,7.296
			c0,0.575-0.063,1.023-0.096,1.312H230.623z M238.879,392.753c0.031-1.792-0.736-4.576-3.904-4.576
			c-2.848,0-4.096,2.624-4.32,4.576H238.879z"/>
		<path fill="#FFFFFF" d="M244.703,399.12c0.832,0.544,2.304,1.12,3.711,1.12c2.049,0,3.008-1.024,3.008-2.304
			c0-1.344-0.799-2.08-2.879-2.848c-2.784-0.992-4.096-2.528-4.096-4.384c0-2.496,2.016-4.544,5.344-4.544
			c1.567,0,2.943,0.448,3.807,0.96l-0.703,2.048c-0.608-0.384-1.729-0.896-3.168-0.896c-1.664,0-2.592,0.96-2.592,2.111
			c0,1.28,0.928,1.855,2.943,2.624c2.688,1.023,4.064,2.368,4.064,4.672c0,2.72-2.112,4.64-5.792,4.64
			c-1.696,0-3.264-0.416-4.352-1.057L244.703,399.12z"/>
	</g>
	<g enable-background="new    ">
		<path fill="#FFFFFF" d="M125.248,461.529c-0.16-3.008-0.352-6.623-0.32-9.311h-0.096c-0.736,2.527-1.632,5.215-2.72,8.191
			l-3.808,10.463h-2.112l-3.488-10.271c-1.024-3.04-1.888-5.823-2.496-8.383h-0.064c-0.064,2.688-0.224,6.303-0.416,9.535
			L109.153,471h-2.656l1.504-21.566h3.552l3.68,10.432c0.896,2.655,1.632,5.023,2.176,7.263h0.096
			c0.544-2.176,1.312-4.543,2.271-7.263l3.84-10.432h3.552L128.511,471h-2.72L125.248,461.529z"/>
		<path fill="#FFFFFF" d="M141.472,471l-0.224-1.952h-0.096c-0.864,1.216-2.528,2.304-4.736,2.304c-3.136,0-4.735-2.207-4.735-4.447
			c0-3.744,3.328-5.792,9.311-5.76v-0.319c0-1.28-0.352-3.584-3.52-3.584c-1.44,0-2.944,0.448-4.032,1.151l-0.64-1.855
			c1.28-0.832,3.136-1.376,5.088-1.376c4.735,0,5.887,3.231,5.887,6.336v5.791c0,1.344,0.064,2.656,0.256,3.712H141.472z
			 M141.056,463.097c-3.072-0.064-6.56,0.479-6.56,3.487c0,1.824,1.216,2.688,2.656,2.688c2.016,0,3.296-1.28,3.744-2.592
			c0.096-0.288,0.16-0.608,0.16-0.896V463.097z"/>
		<path fill="#FFFFFF" d="M151.456,451.161c0.032,0.96-0.672,1.729-1.792,1.729c-0.992,0-1.696-0.769-1.696-1.729
			c0-0.991,0.736-1.76,1.76-1.76C150.784,449.402,151.456,450.17,151.456,451.161z M148.321,471v-15.487h2.816V471H148.321z"/>
		<path fill="#FFFFFF" d="M155.808,459.705c0-1.601-0.032-2.912-0.128-4.192h2.496l0.16,2.561h0.064
			c0.768-1.473,2.56-2.912,5.12-2.912c2.144,0,5.472,1.28,5.472,6.592V471h-2.816v-8.928c0-2.495-0.928-4.575-3.584-4.575
			c-1.855,0-3.295,1.312-3.775,2.88c-0.128,0.352-0.192,0.832-0.192,1.312V471h-2.816V459.705z"/>
		<path fill="#FFFFFF" d="M198.622,461.529c-0.16-3.008-0.353-6.623-0.319-9.311h-0.097c-0.735,2.527-1.632,5.215-2.72,8.191
			l-3.808,10.463h-2.112l-3.487-10.271c-1.024-3.04-1.888-5.823-2.496-8.383h-0.063c-0.064,2.688-0.225,6.303-0.416,9.535
			L182.528,471h-2.656l1.503-21.566h3.553l3.68,10.432c0.896,2.655,1.631,5.023,2.176,7.263h0.096
			c0.544-2.176,1.312-4.543,2.271-7.263l3.84-10.432h3.552L201.886,471h-2.72L198.622,461.529z"/>
		<path fill="#FFFFFF" d="M207.839,463.769c0.063,3.808,2.495,5.376,5.312,5.376c2.016,0,3.232-0.353,4.287-0.801l0.48,2.017
			c-0.992,0.447-2.688,0.96-5.151,0.96c-4.769,0-7.616-3.136-7.616-7.808s2.752-8.352,7.264-8.352c5.057,0,6.4,4.447,6.4,7.296
			c0,0.575-0.064,1.023-0.097,1.312H207.839z M216.094,461.753c0.032-1.792-0.735-4.576-3.903-4.576
			c-2.848,0-4.096,2.624-4.319,4.576H216.094z"/>
		<path fill="#FFFFFF" d="M222.303,459.705c0-1.601-0.032-2.912-0.128-4.192h2.495l0.16,2.561h0.064
			c0.768-1.473,2.56-2.912,5.119-2.912c2.145,0,5.473,1.28,5.473,6.592V471h-2.816v-8.928c0-2.495-0.928-4.575-3.584-4.575
			c-1.855,0-3.295,1.312-3.775,2.88c-0.128,0.352-0.191,0.832-0.191,1.312V471h-2.816V459.705z"/>
		<path fill="#FFFFFF" d="M253.022,466.777c0,1.6,0.031,3.008,0.128,4.224h-2.495l-0.16-2.527h-0.064
			c-0.736,1.247-2.367,2.879-5.119,2.879c-2.432,0-5.344-1.344-5.344-6.783v-9.056h2.815v8.576c0,2.943,0.896,4.928,3.456,4.928
			c1.888,0,3.199-1.313,3.711-2.561c0.16-0.416,0.256-0.928,0.256-1.439v-9.504h2.816V466.777z"/>
	</g>
	<path fill="#FFFFFF" d="M360.25,640.25H-0.25V-0.25h360.5V640.25z M0.25,639.75h359.5V0.25H0.25V639.75z"/>
</g>
</svg>
