<?xml version="1.0" encoding="utf-8"?>
<!-- Generator: Adobe Illustrator 16.0.0, SVG Export Plug-In . SVG Version: 6.00 Build 0)  -->
<!DOCTYPE svg PUBLIC "-//W3C//DTD SVG 1.1//EN" "http://www.w3.org/Graphics/SVG/1.1/DTD/svg11.dtd">
<svg version="1.1" id="Layer_1" xmlns="http://www.w3.org/2000/svg" xmlns:xlink="http://www.w3.org/1999/xlink" x="0px" y="0px"
	 width="360px" height="640px" viewBox="0 0 360 640" enable-background="new 0 0 360 640" xml:space="preserve">
<g>
	<rect x="0" y="0" fill="#2B3990" width="360" height="115.832"/>
	<g enable-background="new    ">
		<path fill="#FFFFFF" d="M106.401,19.266v9.023h10.431v-9.023h2.816v21.566h-2.816V30.721h-10.431v10.111h-2.784V19.266H106.401z"
			/>
		<path fill="#FFFFFF" d="M127.841,20.993c0.032,0.96-0.672,1.729-1.792,1.729c-0.992,0-1.696-0.769-1.696-1.729
			c0-0.991,0.736-1.76,1.76-1.76C127.169,19.234,127.841,20.002,127.841,20.993z M124.705,40.832V25.345h2.816v15.487H124.705z"/>
		<path fill="#FFFFFF" d="M145.535,25.345c-0.064,1.12-0.128,2.368-0.128,4.256v8.991c0,3.552-0.704,5.728-2.208,7.072
			c-1.504,1.407-3.68,1.855-5.632,1.855c-1.856,0-3.904-0.448-5.151-1.28l0.704-2.144c1.024,0.64,2.624,1.216,4.544,1.216
			c2.879,0,4.992-1.504,4.992-5.407v-1.729h-0.064c-0.864,1.44-2.528,2.592-4.927,2.592c-3.84,0-6.592-3.264-6.592-7.551
			c0-5.248,3.424-8.224,6.976-8.224c2.688,0,4.16,1.408,4.832,2.688h0.064l0.128-2.336H145.535z M142.624,31.457
			c0-0.48-0.032-0.896-0.16-1.28c-0.512-1.632-1.888-2.976-3.936-2.976c-2.688,0-4.608,2.271-4.608,5.855
			c0,3.04,1.536,5.567,4.576,5.567c1.728,0,3.296-1.088,3.904-2.88c0.16-0.479,0.224-1.023,0.224-1.504V31.457z"/>
		<path fill="#FFFFFF" d="M150.08,18.114h2.816v9.664h0.064c0.448-0.801,1.152-1.504,2.016-1.984c0.832-0.479,1.824-0.8,2.88-0.8
			c2.08,0,5.408,1.28,5.408,6.624v9.215h-2.816v-8.896c0-2.496-0.928-4.607-3.584-4.607c-1.824,0-3.264,1.28-3.775,2.815
			c-0.16,0.384-0.192,0.8-0.192,1.344v9.344h-2.816V18.114z"/>
		<path fill="#FFFFFF" d="M174.336,37.441c1.248,0.768,3.072,1.408,4.992,1.408c2.848,0,4.512-1.504,4.512-3.681
			c0-2.016-1.151-3.167-4.064-4.287c-3.52-1.248-5.695-3.072-5.695-6.111c0-3.36,2.784-5.855,6.975-5.855
			c2.208,0,3.809,0.512,4.768,1.056l-0.768,2.271c-0.704-0.384-2.145-1.023-4.096-1.023c-2.944,0-4.064,1.76-4.064,3.231
			c0,2.016,1.312,3.008,4.289,4.16c3.646,1.407,5.503,3.167,5.503,6.335c0,3.328-2.464,6.208-7.551,6.208
			c-2.08,0-4.352-0.608-5.504-1.376L174.336,37.441z"/>
		<path fill="#FFFFFF" d="M201.631,40.256c-0.736,0.384-2.368,0.896-4.448,0.896c-4.671,0-7.712-3.168-7.712-7.903
			c0-4.769,3.264-8.224,8.32-8.224c1.664,0,3.135,0.416,3.903,0.8l-0.64,2.176c-0.672-0.384-1.729-0.736-3.264-0.736
			c-3.553,0-5.473,2.624-5.473,5.855c0,3.584,2.305,5.792,5.377,5.792c1.6,0,2.655-0.416,3.455-0.768L201.631,40.256z"/>
		<path fill="#FFFFFF" d="M218.75,32.961c0,5.728-3.967,8.223-7.711,8.223c-4.191,0-7.424-3.071-7.424-7.967
			c0-5.184,3.393-8.224,7.68-8.224C215.742,24.993,218.75,28.225,218.75,32.961z M206.463,33.12c0,3.393,1.952,5.952,4.704,5.952
			c2.688,0,4.704-2.528,4.704-6.016c0-2.624-1.313-5.951-4.641-5.951S206.463,30.177,206.463,33.12z"/>
		<path fill="#FFFFFF" d="M222.303,30.177c0-1.824-0.031-3.392-0.127-4.832h2.463l0.096,3.04h0.129
			c0.703-2.08,2.399-3.392,4.287-3.392c0.32,0,0.545,0.032,0.801,0.096v2.656c-0.289-0.064-0.576-0.096-0.961-0.096
			c-1.983,0-3.391,1.504-3.775,3.615c-0.064,0.384-0.128,0.832-0.128,1.312v8.256h-2.784V30.177z"/>
		<path fill="#FFFFFF" d="M234.016,33.601c0.063,3.808,2.495,5.376,5.311,5.376c2.016,0,3.232-0.353,4.288-0.801l0.479,2.017
			c-0.991,0.447-2.688,0.96-5.15,0.96c-4.769,0-7.616-3.136-7.616-7.808s2.752-8.352,7.264-8.352c5.056,0,6.399,4.447,6.399,7.296
			c0,0.575-0.064,1.023-0.096,1.312H234.016z M242.271,31.585c0.032-1.792-0.735-4.576-3.903-4.576c-2.848,0-4.096,2.624-4.32,4.576
			H242.271z"/>
		<path fill="#FFFFFF" d="M248.095,37.952c0.832,0.544,2.304,1.12,3.712,1.12c2.048,0,3.008-1.024,3.008-2.304
			c0-1.344-0.8-2.08-2.88-2.848c-2.784-0.992-4.096-2.528-4.096-4.384c0-2.496,2.017-4.544,5.344-4.544
			c1.567,0,2.944,0.448,3.808,0.96l-0.704,2.048c-0.608-0.384-1.728-0.896-3.167-0.896c-1.664,0-2.592,0.96-2.592,2.111
			c0,1.28,0.928,1.855,2.943,2.624c2.688,1.023,4.063,2.368,4.063,4.672c0,2.72-2.112,4.64-5.792,4.64
			c-1.695,0-3.264-0.416-4.352-1.057L248.095,37.952z"/>
	</g>
	<g enable-background="new    ">
		<path fill="#FFFFFF" d="M67.994,94.294c-1.024,0.512-3.072,1.024-5.696,1.024c-6.08,0-10.655-3.84-10.655-10.911
			c0-6.752,4.576-11.327,11.263-11.327c2.688,0,4.384,0.575,5.12,0.96l-0.672,2.271c-1.056-0.512-2.56-0.896-4.352-0.896
			c-5.056,0-8.416,3.232-8.416,8.896c0,5.28,3.04,8.672,8.288,8.672c1.696,0,3.423-0.353,4.543-0.896L67.994,94.294z"/>
		<path fill="#FFFFFF" d="M71.386,72.28h2.816v22.719h-2.816V72.28z"/>
		<path fill="#FFFFFF" d="M87.513,94.998l-0.224-1.952h-0.096c-0.864,1.216-2.528,2.304-4.736,2.304
			c-3.136,0-4.735-2.207-4.735-4.447c0-3.744,3.328-5.792,9.311-5.76v-0.319c0-1.28-0.352-3.584-3.52-3.584
			c-1.44,0-2.944,0.448-4.032,1.151l-0.64-1.855c1.28-0.832,3.136-1.376,5.088-1.376c4.735,0,5.887,3.231,5.887,6.336v5.791
			c0,1.344,0.064,2.656,0.256,3.712H87.513z M87.097,87.095c-3.072-0.064-6.56,0.479-6.56,3.487c0,1.824,1.216,2.688,2.656,2.688
			c2.016,0,3.296-1.28,3.744-2.592c0.096-0.288,0.16-0.608,0.16-0.896V87.095z"/>
		<path fill="#FFFFFF" d="M93.978,92.118c0.832,0.544,2.304,1.12,3.712,1.12c2.048,0,3.008-1.024,3.008-2.304
			c0-1.344-0.8-2.08-2.88-2.848c-2.784-0.992-4.096-2.528-4.096-4.384c0-2.496,2.016-4.544,5.344-4.544
			c1.568,0,2.944,0.448,3.808,0.96l-0.704,2.048c-0.608-0.384-1.728-0.896-3.167-0.896c-1.664,0-2.592,0.96-2.592,2.111
			c0,1.28,0.928,1.855,2.944,2.624c2.688,1.023,4.063,2.368,4.063,4.672c0,2.72-2.112,4.64-5.792,4.64
			c-1.696,0-3.264-0.416-4.352-1.057L93.978,92.118z"/>
		<path fill="#FFFFFF" d="M106.65,92.118c0.832,0.544,2.304,1.12,3.712,1.12c2.048,0,3.008-1.024,3.008-2.304
			c0-1.344-0.8-2.08-2.88-2.848c-2.784-0.992-4.096-2.528-4.096-4.384c0-2.496,2.016-4.544,5.344-4.544
			c1.568,0,2.944,0.448,3.808,0.96l-0.704,2.048c-0.608-0.384-1.728-0.896-3.167-0.896c-1.664,0-2.592,0.96-2.592,2.111
			c0,1.28,0.928,1.855,2.944,2.624c2.688,1.023,4.063,2.368,4.063,4.672c0,2.72-2.112,4.64-5.792,4.64
			c-1.696,0-3.264-0.416-4.352-1.057L106.65,92.118z"/>
		<path fill="#FFFFFF" d="M122.842,75.159c0.032,0.96-0.672,1.729-1.792,1.729c-0.992,0-1.696-0.769-1.696-1.729
			c0-0.991,0.736-1.76,1.76-1.76C122.17,73.4,122.842,74.168,122.842,75.159z M119.706,94.998V79.511h2.816v15.487H119.706z"/>
		<path fill="#FFFFFF" d="M138.233,94.422c-0.736,0.384-2.368,0.896-4.448,0.896c-4.671,0-7.711-3.168-7.711-7.903
			c0-4.769,3.264-8.224,8.319-8.224c1.664,0,3.136,0.416,3.904,0.8l-0.64,2.176c-0.672-0.384-1.728-0.736-3.264-0.736
			c-3.552,0-5.472,2.624-5.472,5.855c0,3.584,2.304,5.792,5.376,5.792c1.6,0,2.656-0.416,3.456-0.768L138.233,94.422z"/>
	</g>
	<g enable-background="new    ">
		<path fill="#FFFFFF" d="M269.588,73.432h11.615v2.336h-8.832v7.167h8.16v2.304h-8.16v9.76h-2.783V73.432z"/>
		<path fill="#FFFFFF" d="M287.38,75.159c0.032,0.96-0.672,1.729-1.792,1.729c-0.992,0-1.695-0.769-1.695-1.729
			c0-0.991,0.735-1.76,1.76-1.76C286.708,73.4,287.38,74.168,287.38,75.159z M284.244,94.998V79.511h2.816v15.487H284.244z"/>
		<path fill="#FFFFFF" d="M291.733,84.343c0-1.824-0.033-3.392-0.129-4.832h2.465l0.096,3.04h0.127
			c0.705-2.08,2.4-3.392,4.288-3.392c0.32,0,0.544,0.032,0.8,0.096v2.656c-0.287-0.064-0.576-0.096-0.959-0.096
			c-1.984,0-3.393,1.504-3.776,3.615c-0.063,0.384-0.128,0.832-0.128,1.312v8.256h-2.783V84.343z"/>
		<path fill="#FFFFFF" d="M303.444,87.767c0.064,3.808,2.496,5.376,5.313,5.376c2.016,0,3.231-0.353,4.287-0.801l0.48,2.017
			c-0.992,0.447-2.688,0.96-5.152,0.96c-4.768,0-7.615-3.136-7.615-7.808s2.752-8.352,7.264-8.352c5.056,0,6.399,4.447,6.399,7.296
			c0,0.575-0.063,1.023-0.097,1.312H303.444z M311.699,85.751c0.031-1.792-0.736-4.576-3.904-4.576
			c-2.848,0-4.096,2.624-4.319,4.576H311.699z"/>
	</g>
	<rect x="80" y="515.831" fill="#2B3990" width="200" height="50"/>
	<g enable-background="new    ">
		<path fill="#FFFFFF" d="M125.248,541.083c-0.16-3.008-0.352-6.623-0.32-9.311h-0.096c-0.736,2.527-1.632,5.215-2.72,8.191
			l-3.808,10.463h-2.112l-3.488-10.271c-1.024-3.04-1.888-5.823-2.496-8.383h-0.064c-0.064,2.688-0.224,6.303-0.416,9.535
			l-0.576,9.247h-2.656l1.504-21.566h3.552l3.68,10.432c0.896,2.655,1.632,5.023,2.176,7.263h0.096
			c0.544-2.176,1.312-4.543,2.271-7.263l3.84-10.432h3.552l1.344,21.566h-2.72L125.248,541.083z"/>
		<path fill="#FFFFFF" d="M141.472,550.555l-0.224-1.952h-0.096c-0.864,1.216-2.528,2.304-4.736,2.304
			c-3.136,0-4.735-2.207-4.735-4.447c0-3.744,3.328-5.792,9.311-5.76v-0.319c0-1.28-0.352-3.584-3.52-3.584
			c-1.44,0-2.944,0.448-4.032,1.151l-0.64-1.855c1.28-0.832,3.136-1.376,5.088-1.376c4.735,0,5.887,3.231,5.887,6.336v5.791
			c0,1.344,0.064,2.656,0.256,3.712H141.472z M141.056,542.652c-3.072-0.064-6.56,0.479-6.56,3.487c0,1.824,1.216,2.688,2.656,2.688
			c2.016,0,3.296-1.28,3.744-2.592c0.096-0.288,0.16-0.608,0.16-0.896V542.652z"/>
		<path fill="#FFFFFF" d="M151.456,530.716c0.032,0.96-0.672,1.729-1.792,1.729c-0.992,0-1.696-0.769-1.696-1.729
			c0-0.991,0.736-1.76,1.76-1.76C150.784,528.956,151.456,529.725,151.456,530.716z M148.321,550.555v-15.487h2.816v15.487H148.321z
			"/>
		<path fill="#FFFFFF" d="M155.808,539.26c0-1.601-0.032-2.912-0.128-4.192h2.496l0.16,2.561h0.064
			c0.768-1.473,2.56-2.912,5.12-2.912c2.144,0,5.472,1.28,5.472,6.592v9.247h-2.816v-8.928c0-2.495-0.928-4.575-3.584-4.575
			c-1.855,0-3.295,1.312-3.775,2.88c-0.128,0.352-0.192,0.832-0.192,1.312v9.312h-2.816V539.26z"/>
		<path fill="#FFFFFF" d="M198.622,541.083c-0.16-3.008-0.353-6.623-0.319-9.311h-0.097c-0.735,2.527-1.632,5.215-2.72,8.191
			l-3.808,10.463h-2.112l-3.487-10.271c-1.024-3.04-1.888-5.823-2.496-8.383h-0.063c-0.064,2.688-0.225,6.303-0.416,9.535
			l-0.576,9.247h-2.656l1.503-21.566h3.553l3.68,10.432c0.896,2.655,1.631,5.023,2.176,7.263h0.096
			c0.544-2.176,1.312-4.543,2.271-7.263l3.84-10.432h3.552l1.344,21.566h-2.72L198.622,541.083z"/>
		<path fill="#FFFFFF" d="M207.839,543.323c0.063,3.808,2.495,5.376,5.312,5.376c2.016,0,3.232-0.353,4.287-0.801l0.48,2.017
			c-0.992,0.447-2.688,0.96-5.151,0.96c-4.769,0-7.616-3.136-7.616-7.808s2.752-8.352,7.264-8.352c5.057,0,6.4,4.447,6.4,7.296
			c0,0.575-0.064,1.023-0.097,1.312H207.839z M216.094,541.308c0.032-1.792-0.735-4.576-3.903-4.576
			c-2.848,0-4.096,2.624-4.319,4.576H216.094z"/>
		<path fill="#FFFFFF" d="M222.303,539.26c0-1.601-0.032-2.912-0.128-4.192h2.495l0.16,2.561h0.064
			c0.768-1.473,2.56-2.912,5.119-2.912c2.145,0,5.473,1.28,5.473,6.592v9.247h-2.816v-8.928c0-2.495-0.928-4.575-3.584-4.575
			c-1.855,0-3.295,1.312-3.775,2.88c-0.128,0.352-0.191,0.832-0.191,1.312v9.312h-2.816V539.26z"/>
		<path fill="#FFFFFF" d="M253.022,546.331c0,1.6,0.031,3.008,0.128,4.224h-2.495l-0.16-2.527h-0.064
			c-0.736,1.247-2.367,2.879-5.119,2.879c-2.432,0-5.344-1.344-5.344-6.783v-9.056h2.815v8.576c0,2.943,0.896,4.928,3.456,4.928
			c1.888,0,3.199-1.313,3.711-2.561c0.16-0.416,0.256-0.928,0.256-1.439v-9.504h2.816V546.331z"/>
	</g>
	<rect x="0" y="0" fill="none" stroke="#FFFFFF" stroke-width="0.5" stroke-miterlimit="10" width="360" height="640"/>
</g>
</svg>
