<?xml version="1.0" encoding="utf-8"?>
<!-- Generator: Adobe Illustrator 16.0.0, SVG Export Plug-In . SVG Version: 6.00 Build 0)  -->
<!DOCTYPE svg PUBLIC "-//W3C//DTD SVG 1.1//EN" "http://www.w3.org/Graphics/SVG/1.1/DTD/svg11.dtd">
<svg version="1.1" id="Layer_1" xmlns="http://www.w3.org/2000/svg" xmlns:xlink="http://www.w3.org/1999/xlink" x="0px" y="0px"
	 width="360px" height="640px" viewBox="0 0 360 640" enable-background="new 0 0 360 640" xml:space="preserve">
<g>
	<circle fill="#2B3990" cx="322.5" cy="36.5" r="17.5"/>
	<rect x="80" y="150.251" fill="#2B3990" width="200" height="50"/>
	<rect x="80" y="220.391" fill="#2B3990" width="200" height="50"/>
	<rect x="80" y="288.446" fill="#2B3990" width="200" height="50"/>
	<g enable-background="new    ">
		<path fill="#FFFFFF" d="M153.152,183.546c-1.024,0.512-3.072,1.024-5.696,1.024c-6.08,0-10.655-3.84-10.655-10.911
			c0-6.752,4.576-11.327,11.263-11.327c2.688,0,4.384,0.575,5.12,0.96l-0.672,2.271c-1.056-0.512-2.56-0.896-4.352-0.896
			c-5.056,0-8.416,3.232-8.416,8.896c0,5.28,3.04,8.672,8.288,8.672c1.696,0,3.423-0.353,4.543-0.896L153.152,183.546z"/>
		<path fill="#FFFFFF" d="M156.544,161.531h2.816v22.719h-2.816V161.531z"/>
		<path fill="#FFFFFF" d="M172.671,184.25l-0.224-1.952h-0.096c-0.864,1.216-2.528,2.304-4.736,2.304
			c-3.136,0-4.735-2.207-4.735-4.447c0-3.744,3.328-5.792,9.311-5.76v-0.319c0-1.28-0.352-3.584-3.52-3.584
			c-1.44,0-2.944,0.448-4.032,1.151l-0.64-1.855c1.28-0.832,3.136-1.376,5.088-1.376c4.735,0,5.887,3.231,5.887,6.336v5.791
			c0,1.344,0.064,2.656,0.256,3.712H172.671z M172.255,176.347c-3.072-0.064-6.56,0.479-6.56,3.487c0,1.824,1.216,2.688,2.656,2.688
			c2.016,0,3.296-1.28,3.744-2.592c0.096-0.288,0.16-0.608,0.16-0.896V176.347z"/>
		<path fill="#FFFFFF" d="M179.135,181.37c0.832,0.544,2.304,1.12,3.712,1.12c2.047,0,3.008-1.024,3.008-2.304
			c0-1.344-0.801-2.08-2.881-2.848c-2.783-0.992-4.095-2.528-4.095-4.384c0-2.496,2.016-4.544,5.343-4.544
			c1.568,0,2.944,0.448,3.809,0.96l-0.705,2.048c-0.607-0.384-1.727-0.896-3.167-0.896c-1.664,0-2.592,0.96-2.592,2.111
			c0,1.28,0.928,1.855,2.944,2.624c2.688,1.023,4.063,2.368,4.063,4.672c0,2.72-2.111,4.64-5.791,4.64
			c-1.695,0-3.264-0.416-4.352-1.057L179.135,181.37z"/>
		<path fill="#FFFFFF" d="M191.807,181.37c0.832,0.544,2.305,1.12,3.713,1.12c2.047,0,3.008-1.024,3.008-2.304
			c0-1.344-0.801-2.08-2.881-2.848c-2.783-0.992-4.096-2.528-4.096-4.384c0-2.496,2.017-4.544,5.344-4.544
			c1.568,0,2.944,0.448,3.809,0.96l-0.705,2.048c-0.607-0.384-1.727-0.896-3.167-0.896c-1.664,0-2.592,0.96-2.592,2.111
			c0,1.28,0.928,1.855,2.944,2.624c2.688,1.023,4.063,2.368,4.063,4.672c0,2.72-2.111,4.64-5.791,4.64
			c-1.695,0-3.264-0.416-4.352-1.057L191.807,181.37z"/>
		<path fill="#FFFFFF" d="M207.999,164.411c0.032,0.96-0.672,1.729-1.792,1.729c-0.992,0-1.695-0.769-1.695-1.729
			c0-0.991,0.735-1.76,1.76-1.76C207.327,162.652,207.999,163.42,207.999,164.411z M204.864,184.25v-15.487h2.816v15.487H204.864z"
			/>
		<path fill="#FFFFFF" d="M223.391,183.674c-0.736,0.384-2.368,0.896-4.448,0.896c-4.671,0-7.712-3.168-7.712-7.903
			c0-4.769,3.264-8.224,8.32-8.224c1.664,0,3.135,0.416,3.903,0.8l-0.64,2.176c-0.672-0.384-1.729-0.736-3.264-0.736
			c-3.553,0-5.473,2.624-5.473,5.855c0,3.584,2.305,5.792,5.377,5.792c1.6,0,2.655-0.416,3.455-0.768L223.391,183.674z"/>
	</g>
	<g enable-background="new    ">
		<path fill="#FFFFFF" d="M321.862,29.636h-6.561v-2.368h15.968v2.368h-6.592v19.198h-2.815V29.636z"/>
	</g>
	<g enable-background="new    ">
		<path fill="#FFFFFF" d="M106.992,233.518h11.615v2.336h-8.831v7.167h8.159v2.304h-8.159v9.76h-2.784V233.518z"/>
		<path fill="#FFFFFF" d="M124.785,235.245c0.032,0.96-0.672,1.729-1.792,1.729c-0.992,0-1.696-0.769-1.696-1.729
			c0-0.991,0.736-1.76,1.76-1.76C124.113,233.486,124.785,234.254,124.785,235.245z M121.649,255.084v-15.487h2.816v15.487H121.649z
			"/>
		<path fill="#FFFFFF" d="M129.137,244.429c0-1.824-0.032-3.392-0.128-4.832h2.464l0.096,3.04h0.128
			c0.704-2.08,2.4-3.392,4.288-3.392c0.32,0,0.544,0.032,0.8,0.096v2.656c-0.288-0.064-0.576-0.096-0.96-0.096
			c-1.984,0-3.392,1.504-3.776,3.615c-0.064,0.384-0.128,0.832-0.128,1.312v8.256h-2.784V244.429z"/>
		<path fill="#FFFFFF" d="M140.849,247.853c0.064,3.808,2.496,5.376,5.312,5.376c2.016,0,3.232-0.353,4.288-0.801l0.48,2.017
			c-0.992,0.447-2.688,0.96-5.151,0.96c-4.768,0-7.616-3.136-7.616-7.808s2.752-8.352,7.264-8.352c5.056,0,6.399,4.447,6.399,7.296
			c0,0.575-0.064,1.023-0.096,1.312H140.849z M149.104,245.837c0.032-1.792-0.736-4.576-3.904-4.576
			c-2.848,0-4.096,2.624-4.32,4.576H149.104z"/>
		<path fill="#FFFFFF" d="M170.672,255.084l-0.224-1.952h-0.096c-0.864,1.216-2.528,2.304-4.736,2.304
			c-3.136,0-4.735-2.207-4.735-4.447c0-3.744,3.328-5.792,9.311-5.76v-0.319c0-1.28-0.352-3.584-3.52-3.584
			c-1.44,0-2.944,0.448-4.032,1.151l-0.64-1.855c1.28-0.832,3.136-1.376,5.088-1.376c4.735,0,5.887,3.231,5.887,6.336v5.791
			c0,1.344,0.064,2.656,0.256,3.712H170.672z M170.256,247.181c-3.072-0.064-6.56,0.479-6.56,3.487c0,1.824,1.216,2.688,2.656,2.688
			c2.016,0,3.296-1.28,3.744-2.592c0.096-0.288,0.16-0.608,0.16-0.896V247.181z"/>
		<path fill="#FFFFFF" d="M177.52,243.789c0-1.601-0.032-2.912-0.128-4.192h2.496l0.16,2.561h0.064
			c0.768-1.473,2.56-2.912,5.12-2.912c2.144,0,5.472,1.28,5.472,6.592v9.247h-2.816v-8.928c0-2.495-0.928-4.575-3.584-4.575
			c-1.855,0-3.295,1.312-3.775,2.88c-0.127,0.352-0.191,0.832-0.191,1.312v9.312h-2.816V243.789z"/>
		<path fill="#FFFFFF" d="M208.655,232.365v18.719c0,1.376,0.032,2.944,0.129,4h-2.528l-0.128-2.688h-0.064
			c-0.863,1.728-2.752,3.039-5.279,3.039c-3.744,0-6.623-3.167-6.623-7.871c-0.032-5.151,3.168-8.319,6.943-8.319
			c2.367,0,3.967,1.12,4.672,2.368h0.063v-9.248H208.655z M205.839,245.901c0-0.352-0.032-0.832-0.128-1.184
			c-0.416-1.792-1.951-3.264-4.063-3.264c-2.912,0-4.64,2.56-4.64,5.983c0,3.136,1.535,5.728,4.575,5.728
			c1.888,0,3.616-1.248,4.128-3.359c0.096-0.385,0.128-0.769,0.128-1.216V245.901z"/>
		<path fill="#FFFFFF" d="M223.247,235.245c0.032,0.96-0.672,1.729-1.792,1.729c-0.992,0-1.695-0.769-1.695-1.729
			c0-0.991,0.735-1.76,1.76-1.76C222.575,233.486,223.247,234.254,223.247,235.245z M220.112,255.084v-15.487h2.816v15.487H220.112z
			"/>
		<path fill="#FFFFFF" d="M238.639,254.508c-0.736,0.384-2.368,0.896-4.448,0.896c-4.671,0-7.712-3.168-7.712-7.903
			c0-4.769,3.264-8.224,8.32-8.224c1.664,0,3.135,0.416,3.903,0.8l-0.64,2.176c-0.672-0.384-1.729-0.736-3.264-0.736
			c-3.553,0-5.473,2.624-5.473,5.855c0,3.584,2.305,5.792,5.377,5.792c1.6,0,2.655-0.416,3.455-0.768L238.639,254.508z"/>
		<path fill="#FFFFFF" d="M243.311,247.853c0.064,3.808,2.496,5.376,5.313,5.376c2.016,0,3.231-0.353,4.287-0.801l0.48,2.017
			c-0.992,0.447-2.688,0.96-5.152,0.96c-4.768,0-7.615-3.136-7.615-7.808s2.752-8.352,7.264-8.352c5.056,0,6.399,4.447,6.399,7.296
			c0,0.575-0.063,1.023-0.097,1.312H243.311z M251.567,245.837c0.031-1.792-0.736-4.576-3.904-4.576
			c-2.848,0-4.096,2.624-4.319,4.576H251.567z"/>
	</g>
	<g enable-background="new    ">
		<path fill="#FFFFFF" d="M106.401,298.433v9.023h10.431v-9.023h2.816v21.566h-2.816v-10.111h-10.431v10.111h-2.784v-21.566H106.401
			z"/>
		<path fill="#FFFFFF" d="M127.84,300.16c0.032,0.96-0.672,1.729-1.792,1.729c-0.992,0-1.696-0.769-1.696-1.729
			c0-0.991,0.736-1.76,1.76-1.76C127.168,298.401,127.84,299.169,127.84,300.16z M124.704,319.999v-15.487h2.816v15.487H124.704z"/>
		<path fill="#FFFFFF" d="M145.535,304.512c-0.064,1.12-0.128,2.368-0.128,4.256v8.991c0,3.552-0.704,5.728-2.208,7.072
			c-1.504,1.407-3.68,1.855-5.632,1.855c-1.856,0-3.904-0.448-5.151-1.28l0.704-2.144c1.024,0.64,2.624,1.216,4.544,1.216
			c2.879,0,4.992-1.504,4.992-5.407v-1.729h-0.064c-0.864,1.44-2.528,2.592-4.927,2.592c-3.84,0-6.592-3.264-6.592-7.551
			c0-5.248,3.424-8.224,6.976-8.224c2.688,0,4.16,1.408,4.832,2.688h0.064l0.128-2.336H145.535z M142.623,310.624
			c0-0.48-0.032-0.896-0.16-1.28c-0.512-1.632-1.888-2.976-3.936-2.976c-2.688,0-4.608,2.271-4.608,5.855
			c0,3.04,1.536,5.567,4.576,5.567c1.728,0,3.296-1.088,3.904-2.88c0.16-0.479,0.224-1.023,0.224-1.504V310.624z"/>
		<path fill="#FFFFFF" d="M150.08,297.281h2.816v9.664h0.064c0.448-0.801,1.152-1.504,2.016-1.984c0.832-0.479,1.824-0.8,2.88-0.8
			c2.08,0,5.408,1.28,5.408,6.624v9.215h-2.816v-8.896c0-2.496-0.928-4.607-3.584-4.607c-1.824,0-3.264,1.28-3.775,2.815
			c-0.16,0.384-0.192,0.8-0.192,1.344v9.344h-2.816V297.281z"/>
		<path fill="#FFFFFF" d="M174.335,316.608c1.248,0.768,3.072,1.408,4.992,1.408c2.847,0,4.511-1.504,4.511-3.681
			c0-2.016-1.151-3.167-4.063-4.287c-3.52-1.248-5.695-3.072-5.695-6.111c0-3.36,2.784-5.855,6.976-5.855
			c2.207,0,3.808,0.512,4.768,1.056l-0.768,2.271c-0.705-0.384-2.145-1.023-4.096-1.023c-2.944,0-4.064,1.76-4.064,3.231
			c0,2.016,1.312,3.008,4.288,4.16c3.647,1.407,5.503,3.167,5.503,6.335c0,3.328-2.463,6.208-7.551,6.208
			c-2.08,0-4.352-0.608-5.504-1.376L174.335,316.608z"/>
		<path fill="#FFFFFF" d="M201.63,319.423c-0.735,0.384-2.368,0.896-4.448,0.896c-4.671,0-7.711-3.168-7.711-7.903
			c0-4.769,3.264-8.224,8.319-8.224c1.664,0,3.136,0.416,3.903,0.8l-0.64,2.176c-0.672-0.384-1.728-0.736-3.264-0.736
			c-3.552,0-5.472,2.624-5.472,5.855c0,3.584,2.305,5.792,5.376,5.792c1.6,0,2.655-0.416,3.456-0.768L201.63,319.423z"/>
		<path fill="#FFFFFF" d="M218.75,312.128c0,5.728-3.968,8.223-7.712,8.223c-4.191,0-7.423-3.071-7.423-7.967
			c0-5.184,3.392-8.224,7.68-8.224C215.742,304.16,218.75,307.392,218.75,312.128z M206.463,312.287
			c0,3.393,1.951,5.952,4.703,5.952c2.688,0,4.704-2.528,4.704-6.016c0-2.624-1.312-5.951-4.64-5.951
			S206.463,309.344,206.463,312.287z"/>
		<path fill="#FFFFFF" d="M222.303,309.344c0-1.824-0.032-3.392-0.128-4.832h2.464l0.096,3.04h0.128
			c0.704-2.08,2.399-3.392,4.288-3.392c0.32,0,0.544,0.032,0.8,0.096v2.656c-0.288-0.064-0.576-0.096-0.96-0.096
			c-1.984,0-3.392,1.504-3.775,3.615c-0.064,0.384-0.129,0.832-0.129,1.312v8.256h-2.783V309.344z"/>
		<path fill="#FFFFFF" d="M234.015,312.768c0.063,3.808,2.495,5.376,5.312,5.376c2.016,0,3.232-0.353,4.287-0.801l0.48,2.017
			c-0.992,0.447-2.688,0.96-5.151,0.96c-4.769,0-7.616-3.136-7.616-7.808s2.752-8.352,7.264-8.352c5.057,0,6.4,4.447,6.4,7.296
			c0,0.575-0.064,1.023-0.097,1.312H234.015z M242.27,310.752c0.032-1.792-0.735-4.576-3.903-4.576
			c-2.848,0-4.096,2.624-4.319,4.576H242.27z"/>
		<path fill="#FFFFFF" d="M248.094,317.119c0.832,0.544,2.305,1.12,3.713,1.12c2.047,0,3.008-1.024,3.008-2.304
			c0-1.344-0.801-2.08-2.881-2.848c-2.783-0.992-4.096-2.528-4.096-4.384c0-2.496,2.017-4.544,5.344-4.544
			c1.568,0,2.944,0.448,3.809,0.96l-0.705,2.048c-0.607-0.384-1.727-0.896-3.167-0.896c-1.664,0-2.592,0.96-2.592,2.111
			c0,1.28,0.928,1.855,2.944,2.624c2.688,1.023,4.063,2.368,4.063,4.672c0,2.72-2.111,4.64-5.791,4.64
			c-1.695,0-3.264-0.416-4.352-1.057L248.094,317.119z"/>
	</g>
	<rect x="0" y="0" fill="none" stroke="#FFFFFF" stroke-width="0.5" stroke-miterlimit="10" width="360" height="640"/>
</g>
</svg>
