<?xml version="1.0" encoding="utf-8"?>
<!-- Generator: Adobe Illustrator 16.0.0, SVG Export Plug-In . SVG Version: 6.00 Build 0)  -->
<!DOCTYPE svg PUBLIC "-//W3C//DTD SVG 1.1//EN" "http://www.w3.org/Graphics/SVG/1.1/DTD/svg11.dtd">
<svg version="1.1" id="Layer_1" xmlns="http://www.w3.org/2000/svg" xmlns:xlink="http://www.w3.org/1999/xlink" x="0px" y="0px"
	 width="210.465px" height="212.403px" viewBox="0 0 210.465 212.403" enable-background="new 0 0 210.465 212.403"
	 xml:space="preserve">
<path fill="#9ACA3E" d="M208.867,106.69c0,4.741-0.316,9.392-0.958,13.952c-0.957,7.247-2.688,14.218-5.105,20.923
	c-6.883,19.373-19.418,36.058-35.6,48.14c-6.474,4.835-13.497,8.891-20.977,12.128c-12.536,5.376-26.346,8.386-40.889,8.386
	c-8.16,0-16.137-0.957-23.75-2.733h-0.046c-6.335-1.504-12.444-3.557-18.278-6.201c-16.185-7.203-30.178-18.417-40.709-32.413
	c-5.377-7.108-9.8-14.948-13.172-23.335c-4.879-11.993-7.568-25.121-7.568-38.841c0-13.675,2.645-26.712,7.477-38.656
	c2.415-6.017,5.377-11.761,8.843-17.142c9.983-15.59,24.068-28.308,40.662-36.695c6.791-3.419,13.994-6.107,21.515-7.977
	c8.024-2.006,16.412-3.054,25.027-3.054c9.71,0,19.103,1.322,28.032,3.875c7.247,2.005,14.219,4.832,20.745,8.295
	c19.827,10.622,35.782,27.489,45.265,48.002l0.045,0.044c2.233,4.968,4.148,10.074,5.652,15.454
	C207.544,87.681,208.867,97.025,208.867,106.69z"/>
<path fill="#673090" d="M205.083,74.967h-2.008L181.88,62.02l-12.353,6.749l-3.65,16.5l-11.852,21.152l-5.154,14.997l-16.547,8.254
	l-13.947,13.4l2.591-20.652l16.503-16.502l13.955-11.85l7.248-33.05l7.745-14.997c0,0,23.337,9.526,32.957,13.448l0.049,0.044
	C201.664,64.481,203.579,69.588,205.083,74.967z"/>
<path fill="#673090" d="M102.928,136.145l-11.352,6.932l-18.599-4.607l-9.8,13.399l-21.197-5.15l-14.45,8.752L22.606,165H22.56
	c-5.378-7.113-9.8-14.948-13.172-23.345l21.241-2.181l33.552-10.301l17.549,4.095L102.928,136.145z"/>
<path fill="#673090" d="M109.126,173.022l-6.199,20.148l-21.334,10.434h-0.047c-6.334-1.499-12.445-3.551-18.279-6.196l2.461-1.638
	v-13.951l25.847,2.053l11.352-10.85l2.415-11.352L109.126,173.022z"/>
<path fill="#673090" d="M85.377,26.92l6.199,12.398V55.32l-3.646,8.796L73.981,49.119V33.12L58.8,10.327
	c6.792-3.419,13.994-6.108,21.516-7.978l16.411,4.467L85.377,26.92z"/>
<path fill="#673090" d="M154.165,11.558l-8.935,20.56l-18.555,3.099l-2.591,17.55l-5.698,11.349l-3.606-18.095l3.606-19.602
	l14.993-16.502V3.171c7.252,2.006,14.219,4.833,20.744,8.295L154.165,11.558z"/>
<path fill="#673090" d="M207.909,116.771c-0.957,7.247-2.688,14.218-5.105,20.923l-4.375-3.878l-7.746,5.653l-12.402,3.603
	l-17.55,7.75l-16.007-3.739l6.703-7.613l19.103-5.653l23.251-17.045H207.909z"/>
<path fill="#673090" d="M167.204,185.829c-6.474,4.832-13.497,8.891-20.977,12.128l-1.504-7.884v-8.802l6.116-6.699l-19.512,2.097
	l-4.652-14.998l7.791,7.247h28.312l-8.618,12.354L167.204,185.829z"/>
</svg>
