<?xml version="1.0" encoding="utf-8"?>
<!-- Generator: Adobe Illustrator 16.0.0, SVG Export Plug-In . SVG Version: 6.00 Build 0)  -->
<!DOCTYPE svg PUBLIC "-//W3C//DTD SVG 1.1//EN" "http://www.w3.org/Graphics/SVG/1.1/DTD/svg11.dtd">
<svg version="1.1" id="Layer_1" xmlns="http://www.w3.org/2000/svg" xmlns:xlink="http://www.w3.org/1999/xlink" x="0px" y="0px"
	 width="360px" height="640px" viewBox="0 0 360 640" enable-background="new 0 0 360 640" xml:space="preserve">
<g>
	<rect fill="#FFFFFF" width="360" height="640"/>
	<rect y="490" fill="#2B3990" width="360" height="150"/>
	<linearGradient id="SVGID_1_" gradientUnits="userSpaceOnUse" x1="102.5" y1="559.5" x2="179.6489" y2="559.5">
		<stop  offset="0" style="stop-color:#4D81C2"/>
		<stop  offset="1" style="stop-color:#0E113C"/>
	</linearGradient>
	<rect x="102.5" y="509.5" fill="url(#SVGID_1_)" width="77.149" height="100"/>
	
		<linearGradient id="SVGID_2_" gradientUnits="userSpaceOnUse" x1="179.6484" y1="559.5" x2="254" y2="559.5" gradientTransform="matrix(-1 0 0 1 433.6484 0)">
		<stop  offset="0" style="stop-color:#4D81C2"/>
		<stop  offset="1" style="stop-color:#0E113C"/>
	</linearGradient>
	<rect x="179.648" y="509.5" fill="url(#SVGID_2_)" width="74.352" height="100"/>
	<radialGradient id="SVGID_3_" cx="59" cy="561" r="30" gradientUnits="userSpaceOnUse">
		<stop  offset="0" style="stop-color:#FDC70C"/>
		<stop  offset="0.5249" style="stop-color:#F3903F"/>
		<stop  offset="1" style="stop-color:#EC673D"/>
	</radialGradient>
	<circle fill="url(#SVGID_3_)" cx="59" cy="561" r="30"/>
	<linearGradient id="SVGID_4_" gradientUnits="userSpaceOnUse" x1="102.5" y1="559.5" x2="254" y2="559.5">
		<stop  offset="0" style="stop-color:#315583"/>
		<stop  offset="0.5" style="stop-color:#0E113C"/>
		<stop  offset="1" style="stop-color:#315583"/>
	</linearGradient>
	<rect x="102.5" y="509.5" fill="url(#SVGID_4_)" width="151.5" height="100"/>
	<radialGradient id="SVGID_5_" cx="299" cy="559.5" r="30" gradientUnits="userSpaceOnUse">
		<stop  offset="0" style="stop-color:#2D7191"/>
		<stop  offset="0.2605" style="stop-color:#297395"/>
		<stop  offset="0.5347" style="stop-color:#197BA2"/>
		<stop  offset="0.8141" style="stop-color:#0087BA"/>
		<stop  offset="1" style="stop-color:#0095D5"/>
	</radialGradient>
	<circle fill="url(#SVGID_5_)" cx="299" cy="559.5" r="30"/>
	<polygon fill="#134A89" points="207.952,597.967 247.074,559.5 207.952,521.033 	"/>
	<polygon fill="#134A89" points="152.708,597.967 113.586,559.5 152.708,521.033 	"/>
	<radialGradient id="SVGID_6_" cx="59" cy="561" r="27.788" gradientUnits="userSpaceOnUse">
		<stop  offset="0" style="stop-color:#EC673D"/>
		<stop  offset="0.5249" style="stop-color:#F3903F"/>
		<stop  offset="1" style="stop-color:#FDC70C"/>
	</radialGradient>
	<polygon fill="url(#SVGID_6_)" points="59,540.689 65.723,533.313 68.249,542.97 77.63,539.563 75.379,549.286 85.269,550.63 
		78.757,558.193 86.889,563.979 77.608,567.649 82.121,576.551 72.197,575.489 72.056,585.469 63.763,579.915 59,588.687 
		54.237,579.915 45.944,585.469 45.803,575.489 35.879,576.551 40.392,567.649 31.111,563.979 39.243,558.193 32.731,550.63 
		42.621,549.286 40.37,539.563 49.751,542.97 52.277,533.313 	"/>
	<radialGradient id="SVGID_7_" cx="299" cy="559" r="27.7878" gradientUnits="userSpaceOnUse">
		<stop  offset="0" style="stop-color:#0095D5"/>
		<stop  offset="1" style="stop-color:#2D7191"/>
	</radialGradient>
	<polygon fill="url(#SVGID_7_)" points="299,538.689 305.723,531.313 308.249,540.97 317.63,537.563 315.379,547.286 
		325.269,548.63 318.757,556.193 326.889,561.979 317.608,565.649 322.121,574.551 312.197,573.489 312.057,583.469 
		303.764,577.915 299,586.687 294.236,577.915 285.943,583.469 285.803,573.489 275.879,574.551 280.392,565.649 271.111,561.979 
		279.243,556.193 272.731,548.63 282.621,547.286 280.37,537.563 289.751,540.97 292.277,531.313 	"/>
	<rect fill="#2B3990" width="360" height="48.543"/>
	<g>
		<g>
			<polygon fill="#ED1C24" points="133.147,86.345 68.865,86.345 44.046,55.073 45.613,53.83 69.831,84.345 133.147,84.345 			"/>
			<g>
				<path fill="#ED1C24" d="M37.326,44.997c1.88,5.759,3.444,13.514,3.176,19.303l5.312-8.608l9.587-3.217
					C49.703,51.421,42.506,48.137,37.326,44.997z"/>
			</g>
		</g>
		<g>
			<polygon fill="#ED1C24" points="259.357,86.345 178.25,86.345 178.25,84.345 258.244,84.345 278.732,51.26 280.434,52.313 			"/>
			<g>
				<path fill="#ED1C24" d="M285.938,41.524c-4.782,3.719-11.549,7.817-17.087,9.526l9.898,2.083l6.273,7.932
					C284.084,55.346,284.737,47.462,285.938,41.524z"/>
			</g>
		</g>
		<g>
			<polygon fill="#ED1C24" points="229.67,487.041 227.992,485.953 250.112,451.815 326.196,450.534 326.229,452.534 
				251.212,453.798 			"/>
			<g>
				<path fill="#ED1C24" d="M222.268,496.627c4.857-3.62,11.707-7.579,17.278-9.174l-9.854-2.285l-6.109-8.059
					C224.403,482.847,223.589,490.716,222.268,496.627z"/>
			</g>
		</g>
		<g>
			<polygon fill="#ED1C24" points="79.488,487.041 77.809,485.953 99.93,451.815 176.013,450.534 176.046,452.534 101.028,453.798 
							"/>
			<g>
				<path fill="#ED1C24" d="M72.084,496.627c4.857-3.62,11.707-7.579,17.278-9.174l-9.853-2.285l-6.11-8.059
					C74.221,482.847,73.406,490.716,72.084,496.627z"/>
			</g>
		</g>
		<g>
			<path d="M264.219,432.748c-0.16-3.008-0.353-6.624-0.32-9.313h-0.096c-0.736,2.528-1.633,5.217-2.721,8.191l-3.807,10.464h-2.112
				l-3.487-10.271c-1.024-3.04-1.889-5.823-2.496-8.384h-0.064c-0.064,2.688-0.224,6.305-0.416,9.535l-0.576,9.248h-2.655
				l1.504-21.566h3.552l3.68,10.432c0.896,2.655,1.632,5.023,2.176,7.264h0.096c0.545-2.176,1.313-4.545,2.271-7.264l3.84-10.432
				h3.553l1.344,21.566h-2.721L264.219,432.748z"/>
			<path d="M285.882,434.348c0,5.727-3.968,8.223-7.712,8.223c-4.191,0-7.423-3.071-7.423-7.967c0-5.184,3.392-8.224,7.68-8.224
				C282.875,426.38,285.882,429.611,285.882,434.348z M273.595,434.508c0,3.391,1.952,5.951,4.704,5.951
				c2.688,0,4.703-2.527,4.703-6.016c0-2.624-1.312-5.951-4.639-5.951C275.035,428.492,273.595,431.563,273.595,434.508z"/>
			<path d="M290.299,426.732l3.04,8.703c0.513,1.408,0.929,2.688,1.248,3.967h0.097c0.352-1.279,0.799-2.559,1.311-3.967
				l3.008-8.703h2.944l-6.079,15.486h-2.688l-5.889-15.486H290.299z"/>
			<path d="M305.852,434.987c0.063,3.808,2.495,5.376,5.311,5.376c2.016,0,3.232-0.353,4.288-0.801l0.479,2.016
				c-0.991,0.449-2.688,0.961-5.15,0.961c-4.769,0-7.616-3.137-7.616-7.808c0-4.672,2.752-8.352,7.264-8.352
				c5.056,0,6.399,4.448,6.399,7.296c0,0.576-0.064,1.023-0.096,1.312H305.852z M314.106,432.971
				c0.032-1.791-0.735-4.574-3.903-4.574c-2.848,0-4.096,2.623-4.32,4.574H314.106z"/>
		</g>
		<g>
			<path d="M101.215,438.827c1.248,0.768,3.072,1.407,4.992,1.407c2.848,0,4.512-1.504,4.512-3.68c0-2.016-1.152-3.168-4.064-4.287
				c-3.52-1.248-5.695-3.072-5.695-6.111c0-3.359,2.784-5.855,6.976-5.855c2.208,0,3.808,0.512,4.768,1.056l-0.768,2.271
				c-0.704-0.384-2.144-1.024-4.096-1.024c-2.944,0-4.064,1.761-4.064,3.232c0,2.016,1.312,3.008,4.288,4.16
				c3.647,1.407,5.503,3.168,5.503,6.335c0,3.327-2.464,6.208-7.551,6.208c-2.08,0-4.352-0.608-5.504-1.377L101.215,438.827z"/>
			<path d="M117.279,419.5h2.816v9.664h0.064c0.448-0.801,1.152-1.504,2.016-1.984c0.832-0.48,1.824-0.8,2.88-0.8
				c2.08,0,5.408,1.28,5.408,6.624v9.215h-2.816v-8.896c0-2.495-0.928-4.607-3.584-4.607c-1.824,0-3.264,1.28-3.775,2.815
				c-0.16,0.385-0.192,0.801-0.192,1.344v9.344h-2.816V419.5z"/>
			<path d="M149.054,434.348c0,5.727-3.967,8.223-7.711,8.223c-4.191,0-7.423-3.071-7.423-7.967c0-5.184,3.392-8.224,7.68-8.224
				C146.046,426.38,149.054,429.611,149.054,434.348z M136.767,434.508c0,3.391,1.952,5.951,4.704,5.951
				c2.688,0,4.704-2.527,4.704-6.016c0-2.624-1.312-5.951-4.64-5.951C138.207,428.492,136.767,431.563,136.767,434.508z"/>
			<path d="M166.622,434.348c0,5.727-3.967,8.223-7.711,8.223c-4.191,0-7.423-3.071-7.423-7.967c0-5.184,3.392-8.224,7.68-8.224
				C163.614,426.38,166.622,429.611,166.622,434.348z M154.334,434.508c0,3.391,1.952,5.951,4.704,5.951
				c2.688,0,4.704-2.527,4.704-6.016c0-2.624-1.312-5.951-4.64-5.951C155.774,428.492,154.334,431.563,154.334,434.508z"/>
			<path d="M173.566,422.284v4.448h4.032v2.143h-4.032v8.352c0,1.92,0.544,3.008,2.112,3.008c0.736,0,1.28-0.096,1.632-0.191
				l0.128,2.111c-0.544,0.225-1.408,0.385-2.496,0.385c-1.312,0-2.368-0.416-3.04-1.184c-0.8-0.832-1.088-2.209-1.088-4.032v-8.448
				h-2.399v-2.143h2.399v-3.713L173.566,422.284z"/>
		</g>
		<g>
			<path d="M182.697,75.772c1.248,0.768,3.071,1.408,4.991,1.408c2.848,0,4.512-1.504,4.512-3.68c0-2.016-1.151-3.168-4.063-4.288
				c-3.52-1.248-5.695-3.072-5.695-6.112c0-3.359,2.783-5.855,6.975-5.855c2.208,0,3.809,0.512,4.768,1.056l-0.768,2.271
				c-0.704-0.384-2.145-1.024-4.096-1.024c-2.943,0-4.064,1.76-4.064,3.232c0,2.016,1.313,3.008,4.289,4.16
				c3.646,1.408,5.503,3.168,5.503,6.335c0,3.328-2.464,6.208-7.552,6.208c-2.08,0-4.352-0.608-5.504-1.376L182.697,75.772z"/>
			<path d="M209.992,78.587c-0.736,0.384-2.368,0.896-4.448,0.896c-4.671,0-7.712-3.167-7.712-7.903c0-4.768,3.264-8.223,8.32-8.223
				c1.664,0,3.135,0.416,3.903,0.8l-0.64,2.176c-0.672-0.384-1.729-0.736-3.264-0.736c-3.553,0-5.473,2.624-5.473,5.855
				c0,3.583,2.305,5.792,5.377,5.792c1.6,0,2.655-0.416,3.455-0.768L209.992,78.587z"/>
			<path d="M227.111,71.292c0,5.728-3.967,8.224-7.711,8.224c-4.191,0-7.424-3.072-7.424-7.967c0-5.184,3.393-8.224,7.68-8.224
				C224.104,63.325,227.111,66.557,227.111,71.292z M214.824,71.452c0,3.392,1.952,5.952,4.704,5.952
				c2.688,0,4.704-2.528,4.704-6.016c0-2.624-1.313-5.952-4.641-5.952S214.824,68.508,214.824,71.452z"/>
			<path d="M230.664,68.508c0-1.824-0.031-3.392-0.127-4.832H233l0.096,3.04h0.129c0.703-2.08,2.399-3.392,4.287-3.392
				c0.32,0,0.545,0.032,0.801,0.096v2.656c-0.289-0.064-0.576-0.096-0.961-0.096c-1.983,0-3.391,1.504-3.775,3.616
				c-0.064,0.384-0.128,0.832-0.128,1.312v8.255h-2.784V68.508z"/>
			<path d="M242.377,71.932c0.063,3.808,2.495,5.375,5.311,5.375c2.016,0,3.232-0.352,4.288-0.8l0.479,2.016
				c-0.991,0.448-2.688,0.96-5.15,0.96c-4.769,0-7.616-3.136-7.616-7.807c0-4.672,2.752-8.352,7.264-8.352
				c5.056,0,6.399,4.448,6.399,7.295c0,0.576-0.064,1.024-0.096,1.312H242.377z M250.632,69.916
				c0.032-1.792-0.735-4.575-3.903-4.575c-2.848,0-4.096,2.624-4.32,4.575H250.632z"/>
		</g>
		<g>
			<path d="M74.516,56.763H77.3v19.23h9.215v2.336h-12V56.763z"/>
			<path d="M92.66,58.491c0.032,0.96-0.672,1.728-1.792,1.728c-0.992,0-1.696-0.768-1.696-1.728c0-0.992,0.736-1.76,1.76-1.76
				C91.988,56.731,92.66,57.499,92.66,58.491z M89.524,78.33V62.843h2.816V78.33H89.524z"/>
			<path d="M98.1,62.843l3.04,8.703c0.512,1.408,0.928,2.688,1.248,3.968h0.096c0.352-1.28,0.8-2.56,1.312-3.968l3.008-8.703h2.944
				l-6.08,15.487h-2.688l-5.888-15.487H98.1z"/>
			<path d="M113.651,71.098c0.064,3.808,2.496,5.375,5.312,5.375c2.016,0,3.232-0.352,4.288-0.8l0.48,2.016
				c-0.992,0.448-2.688,0.96-5.151,0.96c-4.768,0-7.616-3.136-7.616-7.807c0-4.672,2.752-8.352,7.264-8.352
				c5.056,0,6.399,4.448,6.399,7.295c0,0.576-0.064,1.024-0.096,1.312H113.651z M121.907,69.082
				c0.032-1.792-0.736-4.575-3.904-4.575c-2.848,0-4.096,2.624-4.32,4.575H121.907z"/>
			<path d="M127.731,75.45c0.832,0.544,2.304,1.12,3.712,1.12c2.048,0,3.008-1.024,3.008-2.304c0-1.344-0.8-2.08-2.88-2.848
				c-2.784-0.992-4.096-2.528-4.096-4.384c0-2.496,2.016-4.543,5.344-4.543c1.568,0,2.944,0.448,3.808,0.96l-0.704,2.048
				c-0.608-0.384-1.728-0.896-3.167-0.896c-1.664,0-2.592,0.96-2.592,2.112c0,1.28,0.928,1.856,2.944,2.624
				c2.688,1.024,4.063,2.368,4.063,4.671c0,2.72-2.112,4.64-5.792,4.64c-1.696,0-3.264-0.416-4.352-1.056L127.731,75.45z"/>
		</g>
		<g>
			<path fill="#ED1C24" d="M134.824,13.704v9.023h10.431v-9.023h2.816v21.566h-2.816V25.159h-10.431v10.111h-2.784V13.704H134.824z"
				/>
			<path fill="#ED1C24" d="M171.334,24.263c0,7.424-4.512,11.359-10.015,11.359c-5.695,0-9.695-4.416-9.695-10.943
				c0-6.848,4.256-11.327,10.015-11.327C167.526,13.352,171.334,17.864,171.334,24.263z M154.6,24.615
				c0,4.608,2.496,8.735,6.879,8.735c4.416,0,6.911-4.063,6.911-8.959c0-4.288-2.24-8.767-6.879-8.767
				C156.903,15.624,154.6,19.879,154.6,24.615z"/>
			<path fill="#ED1C24" d="M174.951,13.704h2.784v19.23h9.216v2.336h-12V13.704z"/>
			<path fill="#ED1C24" d="M190.055,13.992c1.696-0.256,3.712-0.448,5.92-0.448c4,0,6.848,0.928,8.735,2.688
				c1.92,1.76,3.04,4.256,3.04,7.743c0,3.52-1.088,6.4-3.104,8.384c-2.017,2.016-5.344,3.104-9.536,3.104
				c-1.983,0-3.647-0.096-5.056-0.256V13.992z M192.839,33.063c0.704,0.128,1.728,0.16,2.815,0.16c5.951,0,9.184-3.328,9.184-9.151
				c0.031-5.087-2.848-8.319-8.735-8.319c-1.44,0-2.528,0.128-3.264,0.288V33.063z"/>
		</g>
	</g>
	<g>
		<path fill="#FFFFFF" d="M31.23,28.567c0.8,0.512,2.656,1.312,4.608,1.312c3.616,0,4.735-2.304,4.704-4.032
			c-0.032-2.912-2.656-4.16-5.376-4.16h-1.568v-2.112h1.568c2.048,0,4.64-1.056,4.64-3.52c0-1.664-1.056-3.136-3.647-3.136
			c-1.664,0-3.264,0.736-4.16,1.375l-0.736-2.048c1.088-0.8,3.2-1.6,5.439-1.6c4.096,0,5.952,2.432,5.952,4.959
			c0,2.144-1.28,3.968-3.84,4.896v0.064c2.56,0.512,4.64,2.432,4.64,5.343c0,3.328-2.592,6.24-7.583,6.24
			c-2.336,0-4.384-0.736-5.408-1.408L31.23,28.567z"/>
	</g>
	<g>
		<path fill="#FFFFFF" d="M276.016,28.567c0.801,0.512,2.656,1.312,4.608,1.312c3.616,0,4.735-2.304,4.704-4.032
			c-0.033-2.912-2.656-4.16-5.377-4.16h-1.567v-2.112h1.567c2.049,0,4.641-1.056,4.641-3.52c0-1.664-1.057-3.136-3.648-3.136
			c-1.664,0-3.264,0.736-4.159,1.375l-0.735-2.048c1.088-0.8,3.199-1.6,5.439-1.6c4.096,0,5.951,2.432,5.951,4.959
			c0,2.144-1.28,3.968-3.84,4.896v0.064c2.56,0.512,4.64,2.432,4.64,5.343c0,3.328-2.592,6.24-7.583,6.24
			c-2.336,0-4.385-0.736-5.408-1.408L276.016,28.567z"/>
		<path fill="#FFFFFF" d="M305.582,21.176c0,7.071-2.623,10.975-7.23,10.975c-4.064,0-6.816-3.808-6.88-10.688
			c0-6.975,3.008-10.815,7.231-10.815C303.087,10.649,305.582,14.553,305.582,21.176z M294.287,21.496
			c0,5.408,1.664,8.479,4.225,8.479c2.879,0,4.256-3.36,4.256-8.671c0-5.12-1.313-8.479-4.225-8.479
			C296.08,12.825,294.287,15.833,294.287,21.496z"/>
		<path fill="#FFFFFF" d="M321.998,21.176c0,7.071-2.623,10.975-7.231,10.975c-4.063,0-6.815-3.808-6.88-10.688
			c0-6.975,3.008-10.815,7.232-10.815C319.502,10.649,321.998,14.553,321.998,21.176z M310.703,21.496
			c0,5.408,1.664,8.479,4.224,8.479c2.88,0,4.256-3.36,4.256-8.671c0-5.12-1.312-8.479-4.224-8.479
			C312.495,12.825,310.703,15.833,310.703,21.496z"/>
		<path fill="#FFFFFF" d="M338.414,21.176c0,7.071-2.624,10.975-7.232,10.975c-4.063,0-6.814-3.808-6.879-10.688
			c0-6.975,3.008-10.815,7.231-10.815C335.918,10.649,338.414,14.553,338.414,21.176z M327.119,21.496
			c0,5.408,1.663,8.479,4.223,8.479c2.881,0,4.256-3.36,4.256-8.671c0-5.12-1.312-8.479-4.223-8.479
			C328.91,12.825,327.119,15.833,327.119,21.496z"/>
	</g>
	<g>
		<path d="M24.744,112.806v21.566h-2.784v-21.566H24.744z"/>
		<path d="M29.832,123.077c0-1.6-0.032-2.912-0.128-4.191h2.496l0.16,2.56h0.064c0.768-1.472,2.56-2.912,5.12-2.912
			c2.144,0,5.472,1.28,5.472,6.591v9.248h-2.816v-8.927c0-2.496-0.928-4.576-3.584-4.576c-1.855,0-3.295,1.312-3.775,2.88
			c-0.128,0.352-0.192,0.832-0.192,1.312v9.312h-2.816V123.077z"/>
		<path d="M54.471,112.806h11.615v2.336h-8.831v7.167h8.159v2.304h-8.159v9.759h-2.784V112.806z"/>
		<path d="M72.263,114.534c0.032,0.96-0.672,1.728-1.792,1.728c-0.992,0-1.696-0.768-1.696-1.728c0-0.992,0.736-1.76,1.76-1.76
			C71.591,112.774,72.263,113.542,72.263,114.534z M69.127,134.373v-15.487h2.816v15.487H69.127z"/>
		<path d="M76.615,123.717c0-1.824-0.032-3.392-0.128-4.832h2.464l0.096,3.04h0.128c0.704-2.08,2.4-3.392,4.288-3.392
			c0.32,0,0.544,0.032,0.8,0.096v2.656c-0.288-0.064-0.576-0.096-0.96-0.096c-1.984,0-3.392,1.504-3.776,3.616
			c-0.064,0.384-0.128,0.832-0.128,1.312v8.255h-2.784V123.717z"/>
		<path d="M88.327,127.141c0.064,3.808,2.496,5.375,5.312,5.375c2.016,0,3.232-0.352,4.288-0.8l0.48,2.016
			c-0.992,0.448-2.688,0.96-5.151,0.96c-4.768,0-7.616-3.136-7.616-7.807c0-4.672,2.752-8.352,7.264-8.352
			c5.056,0,6.399,4.448,6.399,7.295c0,0.576-0.064,1.024-0.096,1.312H88.327z M96.583,125.125c0.032-1.792-0.736-4.576-3.904-4.576
			c-2.848,0-4.096,2.624-4.32,4.576H96.583z"/>
		<path d="M118.15,134.373l-0.224-1.952h-0.096c-0.864,1.216-2.528,2.304-4.736,2.304c-3.136,0-4.735-2.208-4.735-4.448
			c0-3.744,3.328-5.792,9.311-5.76v-0.32c0-1.28-0.352-3.583-3.52-3.583c-1.44,0-2.944,0.448-4.032,1.152l-0.64-1.856
			c1.28-0.832,3.136-1.376,5.088-1.376c4.735,0,5.887,3.232,5.887,6.335v5.792c0,1.344,0.064,2.656,0.256,3.712H118.15z
			 M117.734,126.469c-3.072-0.064-6.56,0.48-6.56,3.488c0,1.824,1.216,2.688,2.656,2.688c2.016,0,3.296-1.28,3.744-2.592
			c0.096-0.288,0.16-0.608,0.16-0.896V126.469z"/>
		<path d="M124.999,123.077c0-1.6-0.032-2.912-0.128-4.191h2.496l0.16,2.56h0.064c0.768-1.472,2.56-2.912,5.12-2.912
			c2.144,0,5.472,1.28,5.472,6.591v9.248h-2.816v-8.927c0-2.496-0.928-4.576-3.584-4.576c-1.855,0-3.295,1.312-3.775,2.88
			c-0.128,0.352-0.192,0.832-0.192,1.312v9.312h-2.816V123.077z"/>
		<path d="M156.133,111.654v18.719c0,1.375,0.032,2.943,0.128,4h-2.528l-0.128-2.688h-0.064c-0.864,1.728-2.752,3.04-5.28,3.04
			c-3.744,0-6.624-3.168-6.624-7.872c-0.032-5.151,3.168-8.319,6.943-8.319c2.368,0,3.968,1.12,4.672,2.368h0.064v-9.247H156.133z
			 M153.317,125.189c0-0.352-0.032-0.832-0.128-1.184c-0.416-1.792-1.952-3.264-4.063-3.264c-2.912,0-4.64,2.56-4.64,5.983
			c0,3.136,1.536,5.728,4.576,5.728c1.888,0,3.616-1.248,4.128-3.36c0.096-0.384,0.128-0.768,0.128-1.216V125.189z"/>
		<path d="M170.47,112.806v21.566h-2.784v-21.566H170.47z"/>
		<path d="M186.277,133.796c-0.736,0.384-2.368,0.896-4.448,0.896c-4.671,0-7.711-3.167-7.711-7.903c0-4.768,3.264-8.223,8.32-8.223
			c1.663,0,3.136,0.416,3.903,0.8l-0.64,2.176c-0.672-0.384-1.729-0.736-3.264-0.736c-3.552,0-5.472,2.624-5.472,5.855
			c0,3.583,2.304,5.792,5.375,5.792c1.601,0,2.656-0.416,3.456-0.768L186.277,133.796z"/>
		<path d="M190.949,127.141c0.064,3.808,2.496,5.375,5.313,5.375c2.016,0,3.231-0.352,4.287-0.8l0.48,2.016
			c-0.992,0.448-2.688,0.96-5.152,0.96c-4.768,0-7.615-3.136-7.615-7.807c0-4.672,2.752-8.352,7.264-8.352
			c5.056,0,6.399,4.448,6.399,7.295c0,0.576-0.064,1.024-0.096,1.312H190.949z M199.205,125.125
			c0.032-1.792-0.736-4.576-3.903-4.576c-2.849,0-4.096,2.624-4.32,4.576H199.205z"/>
		<path d="M212.197,123.077c0-1.6-0.032-2.912-0.128-4.191h2.464l0.128,2.496h0.096c0.864-1.472,2.304-2.848,4.864-2.848
			c2.111,0,3.711,1.28,4.383,3.104h0.064c0.479-0.864,1.088-1.536,1.728-2.016c0.928-0.704,1.952-1.088,3.424-1.088
			c2.048,0,5.088,1.344,5.088,6.72v9.119h-2.752v-8.768c0-2.976-1.088-4.768-3.359-4.768c-1.601,0-2.848,1.184-3.328,2.56
			c-0.128,0.384-0.224,0.896-0.224,1.408v9.567h-2.752v-9.279c0-2.464-1.088-4.256-3.231-4.256c-1.761,0-3.04,1.408-3.488,2.816
			c-0.16,0.416-0.224,0.896-0.224,1.376v9.343h-2.752V123.077z"/>
		<path d="M252.899,126.501c0,5.728-3.968,8.224-7.711,8.224c-4.192,0-7.424-3.072-7.424-7.967c0-5.184,3.392-8.224,7.68-8.224
			C249.892,118.534,252.899,121.766,252.899,126.501z M240.612,126.661c0,3.392,1.952,5.952,4.704,5.952
			c2.688,0,4.703-2.528,4.703-6.016c0-2.624-1.312-5.952-4.64-5.952C242.053,120.646,240.612,123.717,240.612,126.661z"/>
		<path d="M269.828,111.654v18.719c0,1.375,0.032,2.943,0.128,4h-2.528l-0.128-2.688h-0.063c-0.864,1.728-2.752,3.04-5.279,3.04
			c-3.744,0-6.624-3.168-6.624-7.872c-0.032-5.151,3.168-8.319,6.943-8.319c2.368,0,3.968,1.12,4.672,2.368h0.064v-9.247H269.828z
			 M267.013,125.189c0-0.352-0.032-0.832-0.129-1.184c-0.415-1.792-1.951-3.264-4.063-3.264c-2.911,0-4.64,2.56-4.64,5.983
			c0,3.136,1.536,5.728,4.576,5.728c1.888,0,3.615-1.248,4.127-3.36c0.097-0.384,0.129-0.768,0.129-1.216V125.189z"/>
		<path d="M276.068,127.141c0.064,3.808,2.496,5.375,5.313,5.375c2.016,0,3.231-0.352,4.287-0.8l0.48,2.016
			c-0.992,0.448-2.688,0.96-5.152,0.96c-4.768,0-7.615-3.136-7.615-7.807c0-4.672,2.752-8.352,7.264-8.352
			c5.056,0,6.399,4.448,6.399,7.295c0,0.576-0.064,1.024-0.096,1.312H276.068z M284.324,125.125
			c0.032-1.792-0.736-4.576-3.903-4.576c-2.849,0-4.096,2.624-4.32,4.576H284.324z"/>
		<path d="M288.325,138.308c0.704-1.888,1.568-5.312,1.92-7.647l3.136-0.32c-0.735,2.72-2.144,6.271-3.04,7.775L288.325,138.308z"/>
		<path d="M303.556,111.654h2.815v9.663h0.064c0.448-0.8,1.151-1.504,2.016-1.984c0.832-0.48,1.824-0.8,2.88-0.8
			c2.08,0,5.407,1.28,5.407,6.624v9.215h-2.815v-8.896c0-2.496-0.928-4.607-3.584-4.607c-1.823,0-3.264,1.28-3.775,2.816
			c-0.16,0.384-0.192,0.8-0.192,1.344v9.343h-2.815V111.654z"/>
		<path d="M324.451,114.534c0.032,0.96-0.672,1.728-1.792,1.728c-0.992,0-1.696-0.768-1.696-1.728c0-0.992,0.736-1.76,1.761-1.76
			C323.779,112.774,324.451,113.542,324.451,114.534z M321.315,134.373v-15.487h2.815v15.487H321.315z"/>
		<path d="M332.195,114.438v4.448h4.032v2.144h-4.032v8.352c0,1.92,0.544,3.008,2.112,3.008c0.735,0,1.279-0.096,1.632-0.192
			l0.128,2.112c-0.544,0.224-1.408,0.384-2.496,0.384c-1.312,0-2.368-0.416-3.04-1.184c-0.8-0.832-1.088-2.208-1.088-4.032v-8.448
			h-2.399v-2.144h2.399v-3.712L332.195,114.438z"/>
		<path d="M40.264,152.838v4.448h4.032v2.144h-4.032v8.352c0,1.92,0.544,3.008,2.112,3.008c0.736,0,1.28-0.096,1.632-0.192
			l0.128,2.112c-0.544,0.224-1.408,0.384-2.496,0.384c-1.312,0-2.368-0.416-3.04-1.184c-0.8-0.832-1.088-2.208-1.088-4.032v-8.448
			h-2.399v-2.144h2.399v-3.712L40.264,152.838z"/>
		<path d="M47.464,150.054h2.816v9.663h0.064c0.448-0.8,1.152-1.504,2.016-1.984c0.832-0.48,1.824-0.8,2.88-0.8
			c2.08,0,5.408,1.28,5.408,6.624v9.215h-2.816v-8.896c0-2.496-0.928-4.607-3.584-4.607c-1.824,0-3.264,1.28-3.775,2.816
			c-0.16,0.384-0.192,0.8-0.192,1.344v9.343h-2.816V150.054z"/>
		<path d="M66.792,165.541c0.064,3.808,2.496,5.375,5.312,5.375c2.016,0,3.232-0.352,4.288-0.8l0.48,2.016
			c-0.992,0.448-2.688,0.96-5.151,0.96c-4.768,0-7.616-3.136-7.616-7.807c0-4.672,2.752-8.352,7.264-8.352
			c5.056,0,6.399,4.448,6.399,7.295c0,0.576-0.064,1.024-0.096,1.312H66.792z M75.047,163.525c0.032-1.792-0.736-4.575-3.904-4.575
			c-2.848,0-4.096,2.624-4.32,4.575H75.047z"/>
		<path d="M89.159,157.286l2.048,7.872c0.448,1.728,0.864,3.328,1.152,4.927h0.096c0.352-1.568,0.864-3.231,1.376-4.896l2.528-7.903
			h2.368l2.4,7.743c0.576,1.856,1.024,3.488,1.376,5.056h0.096c0.256-1.568,0.672-3.2,1.184-5.023l2.208-7.775h2.784l-4.992,15.487
			h-2.56l-2.368-7.392c-0.544-1.728-0.992-3.264-1.375-5.087h-0.064c-0.384,1.856-0.864,3.456-1.408,5.12l-2.496,7.359h-2.56
			l-4.671-15.487H89.159z"/>
		<path d="M112.839,165.541c0.064,3.808,2.496,5.375,5.312,5.375c2.016,0,3.232-0.352,4.288-0.8l0.48,2.016
			c-0.992,0.448-2.688,0.96-5.151,0.96c-4.768,0-7.616-3.136-7.616-7.807c0-4.672,2.752-8.352,7.264-8.352
			c5.056,0,6.399,4.448,6.399,7.295c0,0.576-0.064,1.024-0.096,1.312H112.839z M121.094,163.525
			c0.032-1.792-0.736-4.575-3.904-4.575c-2.848,0-4.096,2.624-4.32,4.575H121.094z"/>
		<path d="M135.878,172.772l-0.224-1.952h-0.096c-0.864,1.216-2.528,2.304-4.736,2.304c-3.136,0-4.735-2.208-4.735-4.448
			c0-3.744,3.328-5.792,9.311-5.76v-0.32c0-1.28-0.352-3.583-3.52-3.583c-1.44,0-2.944,0.448-4.032,1.152l-0.64-1.856
			c1.28-0.832,3.136-1.376,5.088-1.376c4.735,0,5.887,3.232,5.887,6.335v5.792c0,1.344,0.064,2.656,0.256,3.712H135.878z
			 M135.462,164.869c-3.072-0.064-6.56,0.48-6.56,3.488c0,1.824,1.216,2.688,2.656,2.688c2.016,0,3.296-1.28,3.744-2.592
			c0.096-0.288,0.16-0.608,0.16-0.896V164.869z"/>
		<path d="M145.51,164.389h0.064c0.384-0.544,0.928-1.216,1.376-1.76l4.543-5.344h3.392l-5.984,6.368l6.815,9.119h-3.423
			l-5.344-7.423l-1.44,1.6v5.824h-2.784v-22.718h2.784V164.389z"/>
		<path d="M164.518,162.341c0-1.984-0.064-3.584-0.128-5.056h2.528l0.128,2.656h0.064c1.152-1.888,2.976-3.008,5.503-3.008
			c3.744,0,6.56,3.168,6.56,7.872c0,5.567-3.392,8.319-7.04,8.319c-2.048,0-3.84-0.896-4.768-2.432h-0.064v8.416h-2.784V162.341z
			 M167.302,166.469c0,0.416,0.064,0.8,0.128,1.152c0.512,1.952,2.208,3.296,4.224,3.296c2.976,0,4.704-2.432,4.704-5.983
			c0-3.104-1.632-5.76-4.607-5.76c-1.92,0-3.712,1.376-4.256,3.488c-0.096,0.352-0.192,0.768-0.192,1.152V166.469z"/>
		<path d="M196.74,164.901c0,5.728-3.968,8.224-7.711,8.224c-4.192,0-7.424-3.072-7.424-7.967c0-5.184,3.392-8.224,7.68-8.224
			C193.732,156.934,196.74,160.166,196.74,164.901z M184.453,165.061c0,3.392,1.952,5.952,4.704,5.952
			c2.688,0,4.703-2.528,4.703-6.016c0-2.624-1.312-5.952-4.64-5.952C185.894,159.045,184.453,162.117,184.453,165.061z"/>
		<path d="M203.429,152.934c0.032,0.96-0.672,1.728-1.792,1.728c-0.992,0-1.696-0.768-1.696-1.728c0-0.992,0.736-1.76,1.761-1.76
			C202.757,151.174,203.429,151.942,203.429,152.934z M200.293,172.772v-15.487h2.815v15.487H200.293z"/>
		<path d="M207.781,161.477c0-1.6-0.032-2.912-0.128-4.191h2.496l0.159,2.56h0.064c0.768-1.472,2.56-2.912,5.119-2.912
			c2.145,0,5.472,1.28,5.472,6.591v9.248h-2.815v-8.927c0-2.496-0.928-4.576-3.584-4.576c-1.855,0-3.296,1.312-3.775,2.88
			c-0.128,0.352-0.192,0.832-0.192,1.312v9.312h-2.815V161.477z"/>
		<path d="M228.806,152.838v4.448h4.032v2.144h-4.032v8.352c0,1.92,0.544,3.008,2.112,3.008c0.735,0,1.279-0.096,1.632-0.192
			l0.128,2.112c-0.544,0.224-1.408,0.384-2.496,0.384c-1.312,0-2.368-0.416-3.04-1.184c-0.8-0.832-1.088-2.208-1.088-4.032v-8.448
			h-2.399v-2.144h2.399v-3.712L228.806,152.838z"/>
		<path d="M243.909,157.286l2.048,7.872c0.447,1.728,0.863,3.328,1.151,4.927h0.097c0.352-1.568,0.863-3.231,1.375-4.896
			l2.528-7.903h2.368l2.399,7.743c0.576,1.856,1.024,3.488,1.376,5.056h0.096c0.256-1.568,0.672-3.2,1.185-5.023l2.207-7.775h2.784
			l-4.991,15.487h-2.561l-2.367-7.392c-0.544-1.728-0.992-3.264-1.376-5.087h-0.064c-0.384,1.856-0.863,3.456-1.407,5.12
			l-2.496,7.359h-2.56l-4.672-15.487H243.909z"/>
		<path d="M269.476,152.934c0.032,0.96-0.672,1.728-1.792,1.728c-0.992,0-1.696-0.768-1.696-1.728c0-0.992,0.736-1.76,1.761-1.76
			C268.804,151.174,269.476,151.942,269.476,152.934z M266.34,172.772v-15.487h2.815v15.487H266.34z"/>
		<path d="M277.22,152.838v4.448h4.032v2.144h-4.032v8.352c0,1.92,0.544,3.008,2.112,3.008c0.735,0,1.279-0.096,1.632-0.192
			l0.128,2.112c-0.544,0.224-1.408,0.384-2.496,0.384c-1.312,0-2.368-0.416-3.04-1.184c-0.8-0.832-1.088-2.208-1.088-4.032v-8.448
			h-2.399v-2.144h2.399v-3.712L277.22,152.838z"/>
		<path d="M284.42,150.054h2.815v9.663h0.064c0.448-0.8,1.151-1.504,2.016-1.984c0.832-0.48,1.824-0.8,2.88-0.8
			c2.08,0,5.407,1.28,5.407,6.624v9.215h-2.815v-8.896c0-2.496-0.928-4.607-3.584-4.607c-1.823,0-3.264,1.28-3.775,2.816
			c-0.16,0.384-0.192,0.8-0.192,1.344v9.343h-2.815V150.054z"/>
		<path d="M317.538,172.772l-0.224-1.952h-0.097c-0.863,1.216-2.527,2.304-4.735,2.304c-3.136,0-4.735-2.208-4.735-4.448
			c0-3.744,3.327-5.792,9.312-5.76v-0.32c0-1.28-0.353-3.583-3.521-3.583c-1.439,0-2.943,0.448-4.031,1.152l-0.64-1.856
			c1.279-0.832,3.136-1.376,5.087-1.376c4.736,0,5.888,3.232,5.888,6.335v5.792c0,1.344,0.064,2.656,0.256,3.712H317.538z
			 M317.122,164.869c-3.071-0.064-6.56,0.48-6.56,3.488c0,1.824,1.216,2.688,2.656,2.688c2.016,0,3.296-1.28,3.743-2.592
			c0.097-0.288,0.16-0.608,0.16-0.896V164.869z"/>
		<path d="M20.008,188.454h2.816v22.718h-2.816V188.454z"/>
		<path d="M36.135,211.172l-0.224-1.952h-0.096c-0.864,1.216-2.528,2.304-4.736,2.304c-3.136,0-4.735-2.208-4.735-4.448
			c0-3.744,3.328-5.792,9.311-5.76v-0.32c0-1.28-0.352-3.583-3.52-3.583c-1.44,0-2.944,0.448-4.032,1.152l-0.64-1.856
			c1.28-0.832,3.136-1.376,5.088-1.376c4.735,0,5.887,3.232,5.887,6.335v5.792c0,1.344,0.064,2.656,0.256,3.712H36.135z
			 M35.719,203.269c-3.072-0.064-6.56,0.48-6.56,3.488c0,1.824,1.216,2.688,2.656,2.688c2.016,0,3.296-1.28,3.744-2.592
			c0.096-0.288,0.16-0.608,0.16-0.896V203.269z"/>
		<path d="M42.599,208.292c0.832,0.544,2.304,1.12,3.712,1.12c2.048,0,3.008-1.024,3.008-2.304c0-1.344-0.8-2.08-2.88-2.848
			c-2.784-0.992-4.096-2.528-4.096-4.384c0-2.496,2.016-4.543,5.344-4.543c1.568,0,2.944,0.448,3.808,0.96l-0.704,2.048
			c-0.608-0.384-1.728-0.896-3.167-0.896c-1.664,0-2.592,0.96-2.592,2.112c0,1.28,0.928,1.856,2.944,2.624
			c2.688,1.024,4.063,2.368,4.063,4.671c0,2.72-2.112,4.64-5.792,4.64c-1.696,0-3.264-0.416-4.352-1.056L42.599,208.292z"/>
		<path d="M57.223,203.941c0.064,3.808,2.496,5.375,5.312,5.375c2.016,0,3.232-0.352,4.288-0.8l0.48,2.016
			c-0.992,0.448-2.688,0.96-5.151,0.96c-4.768,0-7.616-3.136-7.616-7.807c0-4.672,2.752-8.352,7.264-8.352
			c5.056,0,6.399,4.448,6.399,7.295c0,0.576-0.064,1.024-0.096,1.312H57.223z M65.479,201.925c0.032-1.792-0.736-4.576-3.904-4.576
			c-2.848,0-4.096,2.624-4.32,4.576H65.479z"/>
		<path d="M71.687,200.517c0-1.824-0.032-3.392-0.128-4.832h2.464l0.096,3.04h0.128c0.704-2.08,2.4-3.392,4.288-3.392
			c0.32,0,0.544,0.032,0.8,0.096v2.656c-0.288-0.064-0.576-0.096-0.96-0.096c-1.984,0-3.392,1.504-3.776,3.616
			c-0.064,0.384-0.128,0.832-0.128,1.312v8.255h-2.784V200.517z"/>
		<path d="M102.949,203.301c0,5.728-3.967,8.224-7.711,8.224c-4.191,0-7.423-3.072-7.423-7.967c0-5.184,3.392-8.224,7.68-8.224
			C99.942,195.333,102.949,198.565,102.949,203.301z M90.662,203.461c0,3.392,1.952,5.952,4.704,5.952
			c2.688,0,4.704-2.528,4.704-6.016c0-2.624-1.312-5.952-4.64-5.952C92.102,197.445,90.662,200.517,90.662,203.461z"/>
		<path d="M106.791,211.172v-13.343h-2.176v-2.144h2.176v-0.736c0-2.176,0.48-4.16,1.792-5.408c1.056-1.024,2.464-1.44,3.776-1.44
			c0.992,0,1.856,0.224,2.4,0.448l-0.384,2.176c-0.416-0.192-0.992-0.352-1.792-0.352c-2.4,0-3.008,2.112-3.008,4.479v0.832h3.744
			v2.144h-3.744v13.343H106.791z"/>
		<path d="M126.021,191.238v4.448h4.032v2.144h-4.032v8.352c0,1.92,0.544,3.008,2.112,3.008c0.736,0,1.28-0.096,1.632-0.192
			l0.128,2.112c-0.544,0.224-1.408,0.384-2.496,0.384c-1.312,0-2.368-0.416-3.04-1.184c-0.8-0.832-1.088-2.208-1.088-4.032v-8.448
			h-2.399v-2.144h2.399v-3.712L126.021,191.238z"/>
		<path d="M133.222,188.454h2.816v9.663h0.064c0.448-0.8,1.152-1.504,2.016-1.984c0.832-0.48,1.824-0.8,2.88-0.8
			c2.08,0,5.408,1.28,5.408,6.624v9.215h-2.816v-8.896c0-2.496-0.928-4.607-3.584-4.607c-1.824,0-3.264,1.28-3.775,2.816
			c-0.16,0.384-0.192,0.8-0.192,1.344v9.343h-2.816V188.454z"/>
		<path d="M152.549,203.941c0.064,3.808,2.496,5.375,5.312,5.375c2.016,0,3.232-0.352,4.288-0.8l0.48,2.016
			c-0.992,0.448-2.688,0.96-5.151,0.96c-4.768,0-7.616-3.136-7.616-7.807c0-4.672,2.752-8.352,7.264-8.352
			c5.056,0,6.399,4.448,6.399,7.295c0,0.576-0.064,1.024-0.096,1.312H152.549z M160.805,201.925
			c0.032-1.792-0.736-4.576-3.904-4.576c-2.848,0-4.096,2.624-4.32,4.576H160.805z"/>
		<path d="M173.413,208.292c0.832,0.544,2.304,1.12,3.712,1.12c2.048,0,3.008-1.024,3.008-2.304c0-1.344-0.8-2.08-2.88-2.848
			c-2.784-0.992-4.096-2.528-4.096-4.384c0-2.496,2.016-4.543,5.344-4.543c1.568,0,2.944,0.448,3.808,0.96l-0.704,2.048
			c-0.608-0.384-1.728-0.896-3.168-0.896c-1.664,0-2.592,0.96-2.592,2.112c0,1.28,0.928,1.856,2.944,2.624
			c2.688,1.024,4.064,2.368,4.064,4.671c0,2.72-2.112,4.64-5.792,4.64c-1.696,0-3.264-0.416-4.352-1.056L173.413,208.292z"/>
		<path d="M195.044,211.172l-0.224-1.952h-0.097c-0.863,1.216-2.527,2.304-4.735,2.304c-3.136,0-4.735-2.208-4.735-4.448
			c0-3.744,3.327-5.792,9.312-5.76v-0.32c0-1.28-0.353-3.583-3.521-3.583c-1.439,0-2.943,0.448-4.031,1.152l-0.64-1.856
			c1.279-0.832,3.136-1.376,5.087-1.376c4.736,0,5.888,3.232,5.888,6.335v5.792c0,1.344,0.064,2.656,0.256,3.712H195.044z
			 M194.628,203.269c-3.071-0.064-6.56,0.48-6.56,3.488c0,1.824,1.216,2.688,2.656,2.688c2.016,0,3.296-1.28,3.743-2.592
			c0.097-0.288,0.16-0.608,0.16-0.896V203.269z"/>
		<path d="M201.893,199.877c0-1.6-0.032-2.912-0.128-4.191h2.464l0.128,2.496h0.096c0.864-1.472,2.304-2.848,4.864-2.848
			c2.111,0,3.711,1.28,4.383,3.104h0.064c0.479-0.864,1.088-1.536,1.728-2.016c0.928-0.704,1.952-1.088,3.424-1.088
			c2.048,0,5.088,1.344,5.088,6.72v9.119h-2.752v-8.768c0-2.976-1.088-4.768-3.359-4.768c-1.601,0-2.848,1.184-3.328,2.56
			c-0.128,0.384-0.224,0.896-0.224,1.408v9.567h-2.752v-9.279c0-2.464-1.088-4.256-3.231-4.256c-1.761,0-3.04,1.408-3.488,2.816
			c-0.16,0.416-0.224,0.896-0.224,1.376v9.343h-2.752V199.877z"/>
		<path d="M230.147,203.941c0.064,3.808,2.496,5.375,5.312,5.375c2.017,0,3.232-0.352,4.288-0.8l0.48,2.016
			c-0.992,0.448-2.688,0.96-5.152,0.96c-4.768,0-7.615-3.136-7.615-7.807c0-4.672,2.752-8.352,7.264-8.352
			c5.056,0,6.399,4.448,6.399,7.295c0,0.576-0.064,1.024-0.096,1.312H230.147z M238.403,201.925
			c0.032-1.792-0.736-4.576-3.903-4.576c-2.849,0-4.096,2.624-4.32,4.576H238.403z"/>
		<path d="M262.434,210.596c-0.736,0.384-2.368,0.896-4.447,0.896c-4.672,0-7.712-3.167-7.712-7.903
			c0-4.768,3.264-8.223,8.319-8.223c1.664,0,3.136,0.416,3.904,0.8l-0.641,2.176c-0.672-0.384-1.728-0.736-3.264-0.736
			c-3.552,0-5.472,2.624-5.472,5.855c0,3.583,2.304,5.792,5.376,5.792c1.6,0,2.655-0.416,3.456-0.768L262.434,210.596z"/>
		<path d="M279.554,203.301c0,5.728-3.968,8.224-7.711,8.224c-4.192,0-7.424-3.072-7.424-7.967c0-5.184,3.392-8.224,7.68-8.224
			C276.546,195.333,279.554,198.565,279.554,203.301z M267.267,203.461c0,3.392,1.952,5.952,4.704,5.952
			c2.688,0,4.703-2.528,4.703-6.016c0-2.624-1.312-5.952-4.64-5.952C268.707,197.445,267.267,200.517,267.267,203.461z"/>
		<path d="M283.107,188.454h2.815v22.718h-2.815V188.454z"/>
		<path d="M304.673,203.301c0,5.728-3.968,8.224-7.711,8.224c-4.192,0-7.424-3.072-7.424-7.967c0-5.184,3.392-8.224,7.68-8.224
			C301.665,195.333,304.673,198.565,304.673,203.301z M292.386,203.461c0,3.392,1.952,5.952,4.704,5.952
			c2.688,0,4.703-2.528,4.703-6.016c0-2.624-1.312-5.952-4.64-5.952C293.826,197.445,292.386,200.517,292.386,203.461z"/>
		<path d="M321.186,206.949c0,1.6,0.032,3.008,0.128,4.224h-2.496l-0.16-2.528h-0.063c-0.736,1.248-2.368,2.88-5.12,2.88
			c-2.432,0-5.343-1.344-5.343-6.784v-9.055h2.815v8.575c0,2.944,0.896,4.928,3.456,4.928c1.888,0,3.199-1.312,3.711-2.56
			c0.16-0.416,0.257-0.928,0.257-1.44v-9.503h2.815V206.949z"/>
		<path d="M325.857,200.517c0-1.824-0.032-3.392-0.128-4.832h2.464l0.096,3.04h0.128c0.704-2.08,2.4-3.392,4.288-3.392
			c0.319,0,0.544,0.032,0.8,0.096v2.656c-0.288-0.064-0.576-0.096-0.96-0.096c-1.984,0-3.392,1.504-3.775,3.616
			c-0.064,0.384-0.129,0.832-0.129,1.312v8.255h-2.783V200.517z"/>
		<path d="M333.954,209.508c0-1.184,0.8-2.016,1.92-2.016s1.888,0.832,1.888,2.016c0,1.152-0.736,2.016-1.92,2.016
			C334.722,211.524,333.954,210.661,333.954,209.508z"/>
	</g>
</g>
</svg>
